<svg width="39" height="42" viewBox="0 0 39 42" fill="none" xmlns="http://www.w3.org/2000/svg">
<path fill-rule="evenodd" clip-rule="evenodd" d="M0 15.2727C0 21.0635 3.22325 26.1015 7.97277 28.6911C9.09801 29.2115 11.4545 30.2393 11.8788 30.1868L19.197 22.9091H23.7576V19.0909L31.1818 26.7273L23.7576 34.2576V30.5033H11.5606L9.14745 32.9031C11.519 38.2616 16.8833 42 23.1212 42C31.5563 42 38.3939 35.1622 38.3939 26.7273C38.3939 20.9365 35.1707 15.8992 30.4212 13.3096C30.3649 13.2771 30.2868 13.2389 30.1908 13.1961C29.4078 12.8467 27.4372 12.1932 26.4492 11.8788L19.197 19.0909H14.6364V22.9091L7.10606 15.2727L14.6364 7.63636V11.6667H26.6625L29.2463 9.09711C26.8746 3.73862 21.5104 0 15.2727 0C6.83759 0 0 6.83783 0 15.2727Z" fill="#3183FF"/>
<path d="M38.3939 0H15.2727C21.5104 0 26.8746 3.73862 29.2463 9.09711L38.3939 0Z" fill="#3183FF"/>
<path d="M0 42H23.1212C16.8833 42 11.519 38.2616 9.14745 32.9031L0 42Z" fill="#3183FF"/>
</svg>
