<svg width="670" height="260" viewBox="0 0 670 260" fill="none" xmlns="http://www.w3.org/2000/svg">
<line opacity="0.08" x1="656.5" y1="221" x2="656.5" stroke="#D9D9D9"/>
<line opacity="0.08" x1="292.305" y1="221" x2="292.305" stroke="#D9D9D9"/>
<line opacity="0.08" x1="353" y1="221" x2="353" stroke="#D9D9D9"/>
<line opacity="0.08" x1="413.695" y1="221" x2="413.695" stroke="#D9D9D9"/>
<line opacity="0.08" x1="595.805" y1="221" x2="595.805" stroke="#D9D9D9"/>
<line opacity="0.08" x1="535.102" y1="221" x2="535.102" stroke="#D9D9D9"/>
<line opacity="0.08" x1="170.898" y1="221" x2="170.898" stroke="#D9D9D9"/>
<line opacity="0.08" x1="110.195" y1="221" x2="110.195" stroke="#D9D9D9"/>
<line opacity="0.08" x1="49.5" y1="221" x2="49.5" stroke="#D9D9D9"/>
<line opacity="0.08" x1="231.602" y1="221" x2="231.602" stroke="#D9D9D9"/>
<line opacity="0.08" x1="474.398" y1="221" x2="474.398" stroke="#D9D9D9"/>
<g opacity="0.7">
<path d="M4.43466 14.1392C4.01705 14.1326 3.59943 14.053 3.18182 13.9006C2.7642 13.7481 2.38305 13.4912 2.03835 13.13C1.69366 12.7654 1.4169 12.2732 1.2081 11.6534C0.99929 11.0303 0.894886 10.2481 0.894886 9.30682C0.894886 8.4053 0.979403 7.60653 1.14844 6.91051C1.31747 6.21117 1.56274 5.62287 1.88423 5.1456C2.20573 4.66501 2.59351 4.30043 3.04759 4.05185C3.50497 3.80327 4.02036 3.67898 4.59375 3.67898C5.16383 3.67898 5.67093 3.79332 6.11506 4.02202C6.5625 4.2474 6.92708 4.56226 7.20881 4.96662C7.49053 5.37098 7.67282 5.83665 7.75568 6.36364H6.54261C6.42992 5.90625 6.21117 5.52675 5.88636 5.22514C5.56155 4.92353 5.13068 4.77273 4.59375 4.77273C3.80492 4.77273 3.18348 5.11577 2.7294 5.80185C2.27865 6.48793 2.05161 7.45076 2.0483 8.69034H2.12784C2.31345 8.40862 2.53385 8.16832 2.78906 7.96946C3.04759 7.76728 3.33262 7.61151 3.64418 7.50213C3.95573 7.39276 4.28551 7.33807 4.63352 7.33807C5.21686 7.33807 5.75047 7.4839 6.23438 7.77557C6.71828 8.06392 7.10606 8.4633 7.39773 8.97372C7.68939 9.48082 7.83523 10.0625 7.83523 10.7188C7.83523 11.3485 7.69437 11.9252 7.41264 12.4489C7.13092 12.9692 6.73485 13.3835 6.22443 13.6918C5.71733 13.9967 5.12074 14.1458 4.43466 14.1392ZM4.43466 13.0455C4.85227 13.0455 5.2268 12.9411 5.55824 12.7322C5.89299 12.5234 6.15649 12.2434 6.34872 11.892C6.54427 11.5407 6.64205 11.1496 6.64205 10.7188C6.64205 10.2978 6.54759 9.91501 6.35866 9.57031C6.17306 9.2223 5.91619 8.94555 5.58807 8.74006C5.26326 8.53456 4.89205 8.43182 4.47443 8.43182C4.15956 8.43182 3.86624 8.49479 3.59446 8.62074C3.32268 8.74337 3.08404 8.91241 2.87855 9.12784C2.67637 9.34328 2.51728 9.5902 2.40128 9.86861C2.28527 10.1437 2.22727 10.4337 2.22727 10.7386C2.22727 11.143 2.32173 11.5208 2.51065 11.8722C2.70289 12.2235 2.96473 12.5069 3.29616 12.7223C3.63092 12.9377 4.01042 13.0455 4.43466 13.0455ZM13.1113 14.1392C12.3623 14.1392 11.7243 13.9354 11.1973 13.5277C10.6703 13.1167 10.2676 12.5218 9.98917 11.7429C9.71076 10.9607 9.57156 10.0161 9.57156 8.90909C9.57156 7.80871 9.71076 6.86908 9.98917 6.0902C10.2709 5.308 10.6752 4.71141 11.2022 4.30043C11.7325 3.88613 12.3689 3.67898 13.1113 3.67898C13.8538 3.67898 14.4885 3.88613 15.0154 4.30043C15.5458 4.71141 15.9501 5.308 16.2285 6.0902C16.5102 6.86908 16.6511 7.80871 16.6511 8.90909C16.6511 10.0161 16.5119 10.9607 16.2335 11.7429C15.9551 12.5218 15.5524 13.1167 15.0254 13.5277C14.4984 13.9354 13.8604 14.1392 13.1113 14.1392ZM13.1113 13.0455C13.8538 13.0455 14.4305 12.6875 14.8414 11.9716C15.2524 11.2557 15.4579 10.2348 15.4579 8.90909C15.4579 8.02746 15.3635 7.27675 15.1745 6.65696C14.9889 6.03717 14.7205 5.56487 14.3691 5.24006C14.0211 4.91525 13.6019 4.75284 13.1113 4.75284C12.3755 4.75284 11.8005 5.11577 11.3862 5.84162C10.9719 6.56416 10.7647 7.58665 10.7647 8.90909C10.7647 9.79072 10.8575 10.5398 11.0431 11.1562C11.2288 11.7727 11.4956 12.2417 11.8436 12.5632C12.1949 12.8847 12.6175 13.0455 13.1113 13.0455ZM19.6539 11.2159L19.6341 9.7642H19.8727L23.2136 6.36364H24.6653L21.1056 9.96307H21.0062L19.6539 11.2159ZM18.5602 14V3.81818H19.7335V14H18.5602ZM23.4125 14L20.4295 10.2216L21.2647 9.40625L24.9039 14H23.4125Z" fill="#646464"/>
<path d="M4.2358 55.2493C3.65246 55.2493 3.12713 55.1332 2.6598 54.9012C2.19247 54.6692 1.81795 54.3511 1.53622 53.9467C1.2545 53.5423 1.10038 53.0816 1.07386 52.5646H2.26705C2.31345 53.0253 2.52225 53.4064 2.89347 53.7081C3.26799 54.0064 3.71544 54.1555 4.2358 54.1555C4.65341 54.1555 5.02462 54.0577 5.34943 53.8622C5.67756 53.6666 5.93442 53.3982 6.12003 53.0568C6.30895 52.7121 6.40341 52.3226 6.40341 51.8885C6.40341 51.4443 6.30563 51.0483 6.11009 50.7002C5.91785 50.3489 5.6527 50.0722 5.31463 49.87C4.97656 49.6678 4.59044 49.5651 4.15625 49.5618C3.8447 49.5584 3.52486 49.6065 3.19673 49.7059C2.86861 49.802 2.59848 49.9263 2.38636 50.0788L1.23295 49.9396L1.84943 44.9282H7.1392V46.022H2.88352L2.52557 49.0248H2.58523C2.79403 48.8591 3.05587 48.7216 3.37074 48.6122C3.68561 48.5028 4.01373 48.4481 4.35511 48.4481C4.97822 48.4481 5.53338 48.5973 6.0206 48.8956C6.51113 49.1905 6.8956 49.5949 7.17401 50.1086C7.45573 50.6224 7.59659 51.209 7.59659 51.8686C7.59659 52.5182 7.45076 53.0982 7.15909 53.6086C6.87074 54.1157 6.47301 54.5168 5.96591 54.8118C5.45881 55.1034 4.8821 55.2493 4.2358 55.2493ZM12.8926 55.2493C12.1435 55.2493 11.5055 55.0454 10.9785 54.6377C10.4515 54.2268 10.0488 53.6318 9.77042 52.8529C9.49201 52.0707 9.35281 51.1261 9.35281 50.0191C9.35281 48.9188 9.49201 47.9791 9.77042 47.2002C10.0521 46.418 10.4565 45.8215 10.9835 45.4105C11.5138 44.9962 12.1502 44.789 12.8926 44.789C13.635 44.789 14.2697 44.9962 14.7967 45.4105C15.327 45.8215 15.7314 46.418 16.0098 47.2002C16.2915 47.9791 16.4324 48.9188 16.4324 50.0191C16.4324 51.1261 16.2931 52.0707 16.0147 52.8529C15.7363 53.6318 15.3336 54.2268 14.8066 54.6377C14.2797 55.0454 13.6416 55.2493 12.8926 55.2493ZM12.8926 54.1555C13.635 54.1555 14.2117 53.7975 14.6227 53.0816C15.0337 52.3657 15.2392 51.3449 15.2392 50.0191C15.2392 49.1375 15.1447 48.3868 14.9558 47.767C14.7702 47.1472 14.5017 46.6749 14.1504 46.3501C13.8024 46.0253 13.3831 45.8629 12.8926 45.8629C12.1568 45.8629 11.5817 46.2258 11.1674 46.9517C10.7531 47.6742 10.546 48.6967 10.546 50.0191C10.546 50.9008 10.6388 51.6498 10.8244 52.2663C11.01 52.8828 11.2768 53.3518 11.6248 53.6733C11.9761 53.9948 12.3987 54.1555 12.8926 54.1555ZM19.4352 52.326L19.4153 50.8743H19.6539L22.9949 47.4737H24.4466L20.8869 51.0731H20.7875L19.4352 52.326ZM18.3414 55.11V44.9282H19.5147V55.11H18.3414ZM23.1937 55.11L20.2108 51.3316L21.046 50.5163L24.6852 55.11H23.1937Z" fill="#646464"/>
<path d="M0.815341 94.132V93.1178L5.28977 86.0383H6.02557V87.6093H5.52841L2.14773 92.9587V93.0383H8.1733V94.132H0.815341ZM5.60795 96.2201V93.8238V93.3515V86.0383H6.78125V96.2201H5.60795ZM13.3574 96.3593C12.6084 96.3593 11.9703 96.1555 11.4434 95.7478C10.9164 95.3368 10.5137 94.7419 10.2353 93.963C9.95685 93.1808 9.81765 92.2362 9.81765 91.1292C9.81765 90.0288 9.95685 89.0892 10.2353 88.3103C10.517 87.5281 10.9213 86.9315 11.4483 86.5205C11.9786 86.1062 12.615 85.8991 13.3574 85.8991C14.0998 85.8991 14.7346 86.1062 15.2615 86.5205C15.7918 86.9315 16.1962 87.5281 16.4746 88.3103C16.7563 89.0892 16.8972 90.0288 16.8972 91.1292C16.8972 92.2362 16.758 93.1808 16.4796 93.963C16.2012 94.7419 15.7985 95.3368 15.2715 95.7478C14.7445 96.1555 14.1065 96.3593 13.3574 96.3593ZM13.3574 95.2655C14.0998 95.2655 14.6766 94.9076 15.0875 94.1917C15.4985 93.4758 15.704 92.4549 15.704 91.1292C15.704 90.2476 15.6096 89.4968 15.4206 88.8771C15.235 88.2573 14.9666 87.785 14.6152 87.4601C14.2672 87.1353 13.848 86.9729 13.3574 86.9729C12.6216 86.9729 12.0466 87.3359 11.6323 88.0617C11.218 88.7842 11.0108 89.8067 11.0108 91.1292C11.0108 92.0108 11.1036 92.7599 11.2892 93.3763C11.4748 93.9928 11.7417 94.4618 12.0897 94.7833C12.441 95.1048 12.8636 95.2655 13.3574 95.2655ZM19.9 93.436L19.8801 91.9843H20.1188L23.4597 88.5837H24.9114L21.3517 92.1832H21.2523L19.9 93.436ZM18.8063 96.2201V86.0383H19.9796V96.2201H18.8063ZM23.6586 96.2201L20.6756 92.4417L21.5108 91.6263L25.15 96.2201H23.6586Z" fill="#646464"/>
<path d="M4.49432 137.469C3.83807 137.469 3.25308 137.357 2.73935 137.131C2.22893 136.906 1.82292 136.593 1.52131 136.192C1.22301 135.787 1.06061 135.318 1.03409 134.785H2.28693C2.31345 135.113 2.42614 135.396 2.625 135.635C2.82386 135.87 3.08404 136.053 3.40554 136.182C3.72704 136.311 4.08333 136.376 4.47443 136.376C4.91193 136.376 5.29972 136.299 5.63778 136.147C5.97585 135.995 6.241 135.782 6.43324 135.511C6.62547 135.239 6.72159 134.924 6.72159 134.566C6.72159 134.192 6.62879 133.862 6.44318 133.577C6.25758 133.288 5.9858 133.063 5.62784 132.901C5.26989 132.738 4.83239 132.657 4.31534 132.657H3.5V131.563H4.31534C4.7197 131.563 5.07434 131.49 5.37926 131.344C5.6875 131.199 5.92779 130.993 6.10014 130.728C6.27581 130.463 6.36364 130.151 6.36364 129.793C6.36364 129.449 6.28741 129.149 6.13494 128.893C5.98248 128.638 5.76705 128.439 5.48864 128.297C5.21354 128.154 4.88873 128.083 4.5142 128.083C4.16288 128.083 3.83144 128.148 3.51989 128.277C3.21165 128.403 2.95975 128.587 2.7642 128.829C2.56866 129.067 2.46259 129.356 2.44602 129.694H1.25284C1.27273 129.16 1.43348 128.693 1.73509 128.292C2.0367 127.888 2.43111 127.573 2.91832 127.347C3.40885 127.122 3.94744 127.009 4.53409 127.009C5.16383 127.009 5.70407 127.137 6.15483 127.392C6.60559 127.644 6.95194 127.977 7.19389 128.391C7.43584 128.806 7.55682 129.253 7.55682 129.734C7.55682 130.307 7.40601 130.796 7.1044 131.2C6.80611 131.605 6.4001 131.885 5.88636 132.04V132.12C6.52936 132.226 7.03149 132.5 7.39276 132.94C7.75402 133.378 7.93466 133.92 7.93466 134.566C7.93466 135.12 7.78385 135.617 7.48224 136.058C7.18395 136.495 6.77628 136.84 6.25923 137.092C5.74219 137.344 5.15388 137.469 4.49432 137.469ZM13.2891 137.469C12.54 137.469 11.902 137.266 11.375 136.858C10.848 136.447 10.4453 135.852 10.1669 135.073C9.88849 134.291 9.74929 133.346 9.74929 132.239C9.74929 131.139 9.88849 130.199 10.1669 129.42C10.4486 128.638 10.853 128.042 11.38 127.631C11.9103 127.216 12.5466 127.009 13.2891 127.009C14.0315 127.009 14.6662 127.216 15.1932 127.631C15.7235 128.042 16.1278 128.638 16.4062 129.42C16.688 130.199 16.8288 131.139 16.8288 132.239C16.8288 133.346 16.6896 134.291 16.4112 135.073C16.1328 135.852 15.7301 136.447 15.2031 136.858C14.6761 137.266 14.0381 137.469 13.2891 137.469ZM13.2891 136.376C14.0315 136.376 14.6082 136.018 15.0192 135.302C15.4302 134.586 15.6357 133.565 15.6357 132.239C15.6357 131.358 15.5412 130.607 15.3523 129.987C15.1667 129.367 14.8982 128.895 14.5469 128.57C14.1989 128.246 13.7796 128.083 13.2891 128.083C12.5533 128.083 11.9782 128.446 11.5639 129.172C11.1496 129.894 10.9425 130.917 10.9425 132.239C10.9425 133.121 11.0353 133.87 11.2209 134.487C11.4065 135.103 11.6733 135.572 12.0213 135.893C12.3726 136.215 12.7952 136.376 13.2891 136.376ZM19.8317 134.546L19.8118 133.094H20.0504L23.3913 129.694H24.843L21.2834 133.293H21.1839L19.8317 134.546ZM18.7379 137.33V127.148H19.9112V137.33H18.7379ZM23.5902 137.33L20.6072 133.552L21.4425 132.737L25.0817 137.33H23.5902Z" fill="#646464"/>
<path d="M1.05398 178.44V177.545L4.41477 173.866C4.80919 173.436 5.134 173.061 5.3892 172.743C5.64441 172.421 5.83333 172.12 5.95597 171.838C6.08191 171.553 6.14489 171.255 6.14489 170.943C6.14489 170.585 6.05871 170.275 5.88636 170.013C5.71733 169.752 5.48532 169.549 5.19034 169.407C4.89536 169.264 4.56392 169.193 4.19602 169.193C3.80492 169.193 3.46354 169.274 3.17188 169.437C2.88352 169.596 2.6598 169.82 2.50071 170.108C2.34493 170.396 2.26705 170.734 2.26705 171.122H1.09375C1.09375 170.525 1.2313 170.002 1.50639 169.551C1.78149 169.1 2.15601 168.749 2.62997 168.497C3.10724 168.245 3.64252 168.119 4.2358 168.119C4.83239 168.119 5.36103 168.245 5.82173 168.497C6.28243 168.749 6.6437 169.089 6.90554 169.516C7.16738 169.944 7.2983 170.419 7.2983 170.943C7.2983 171.318 7.23035 171.684 7.09446 172.042C6.96188 172.396 6.72988 172.793 6.39844 173.23C6.07031 173.664 5.61458 174.195 5.03125 174.821L2.74432 177.267V177.346H7.47727V178.44H1.05398ZM12.8516 178.579C12.1025 178.579 11.4645 178.376 10.9375 177.968C10.4105 177.557 10.0078 176.962 9.7294 176.183C9.45099 175.401 9.31179 174.456 9.31179 173.349C9.31179 172.249 9.45099 171.309 9.7294 170.53C10.0111 169.748 10.4155 169.152 10.9425 168.741C11.4728 168.326 12.1091 168.119 12.8516 168.119C13.594 168.119 14.2287 168.326 14.7557 168.741C15.286 169.152 15.6903 169.748 15.9688 170.53C16.2505 171.309 16.3913 172.249 16.3913 173.349C16.3913 174.456 16.2521 175.401 15.9737 176.183C15.6953 176.962 15.2926 177.557 14.7656 177.968C14.2386 178.376 13.6006 178.579 12.8516 178.579ZM12.8516 177.486C13.594 177.486 14.1707 177.128 14.5817 176.412C14.9927 175.696 15.1982 174.675 15.1982 173.349C15.1982 172.468 15.1037 171.717 14.9148 171.097C14.7292 170.477 14.4607 170.005 14.1094 169.68C13.7614 169.355 13.3421 169.193 12.8516 169.193C12.1158 169.193 11.5407 169.556 11.1264 170.282C10.7121 171.004 10.505 172.027 10.505 173.349C10.505 174.231 10.5978 174.98 10.7834 175.596C10.969 176.213 11.2358 176.682 11.5838 177.003C11.9351 177.325 12.3577 177.486 12.8516 177.486ZM19.3942 175.656L19.3743 174.204H19.6129L22.9538 170.804H24.4055L20.8459 174.403H20.7464L19.3942 175.656ZM18.3004 178.44V168.258H19.4737V178.44H18.3004ZM23.1527 178.44L20.1697 174.662L21.005 173.846L24.6442 178.44H23.1527Z" fill="#646464"/>
<path d="M4.63352 209.369V219.55H3.40057V210.661H3.34091L0.855114 212.312V211.059L3.40057 209.369H4.63352ZM10.8828 219.69C10.1338 219.69 9.49574 219.486 8.96875 219.078C8.44176 218.667 8.03906 218.072 7.76065 217.293C7.48224 216.511 7.34304 215.566 7.34304 214.459C7.34304 213.359 7.48224 212.419 7.76065 211.641C8.04238 210.858 8.44673 210.262 8.97372 209.851C9.50402 209.436 10.1404 209.229 10.8828 209.229C11.6252 209.229 12.2599 209.436 12.7869 209.851C13.3172 210.262 13.7216 210.858 14 211.641C14.2817 212.419 14.4226 213.359 14.4226 214.459C14.4226 215.566 14.2834 216.511 14.005 217.293C13.7266 218.072 13.3239 218.667 12.7969 219.078C12.2699 219.486 11.6319 219.69 10.8828 219.69ZM10.8828 218.596C11.6252 218.596 12.2019 218.238 12.6129 217.522C13.0239 216.806 13.2294 215.785 13.2294 214.459C13.2294 213.578 13.1349 212.827 12.946 212.207C12.7604 211.588 12.492 211.115 12.1406 210.79C11.7926 210.466 11.3733 210.303 10.8828 210.303C10.147 210.303 9.57197 210.666 9.15767 211.392C8.74337 212.115 8.53622 213.137 8.53622 214.459C8.53622 215.341 8.62902 216.09 8.81463 216.707C9.00024 217.323 9.26705 217.792 9.61506 218.114C9.96638 218.435 10.389 218.596 10.8828 218.596ZM17.4254 216.766L17.4055 215.315H17.6442L20.9851 211.914H22.4368L18.8771 215.513H18.7777L17.4254 216.766ZM16.3317 219.55V209.369H17.505V219.55H16.3317ZM21.1839 219.55L18.201 215.772L19.0362 214.957L22.6754 219.55H21.1839Z" fill="#646464"/>
</g>
<g opacity="0.7">
<path d="M41.375 251H38.233V240.818H41.5142C42.5019 240.818 43.3471 241.022 44.0497 241.43C44.7524 241.834 45.291 242.416 45.6655 243.175C46.04 243.93 46.2273 244.835 46.2273 245.889C46.2273 246.95 46.0384 247.863 45.6605 248.629C45.2827 249.391 44.7325 249.978 44.0099 250.388C43.2874 250.796 42.4091 251 41.375 251ZM39.4659 249.906H41.2955C42.1373 249.906 42.835 249.744 43.3885 249.419C43.942 249.094 44.3546 248.632 44.6264 248.032C44.8982 247.432 45.0341 246.718 45.0341 245.889C45.0341 245.067 44.8999 244.36 44.6314 243.766C44.3629 243.17 43.9619 242.712 43.4283 242.394C42.8946 242.073 42.2301 241.912 41.4347 241.912H39.4659V249.906ZM51.3381 251.159C50.6023 251.159 49.9676 250.997 49.4339 250.672C48.9036 250.344 48.4943 249.886 48.206 249.3C47.9209 248.71 47.7784 248.024 47.7784 247.241C47.7784 246.459 47.9209 245.77 48.206 245.173C48.4943 244.573 48.8954 244.106 49.4091 243.771C49.9261 243.433 50.5294 243.264 51.2188 243.264C51.6165 243.264 52.0092 243.33 52.397 243.463C52.7848 243.596 53.1378 243.811 53.456 244.109C53.7741 244.404 54.0277 244.795 54.2166 245.283C54.4055 245.77 54.5 246.37 54.5 247.082V247.58H48.6136V246.565H53.3068C53.3068 246.134 53.2206 245.75 53.0483 245.412C52.8793 245.074 52.6373 244.807 52.3224 244.612C52.0109 244.416 51.643 244.318 51.2188 244.318C50.7514 244.318 50.3471 244.434 50.0057 244.666C49.6676 244.895 49.4074 245.193 49.2251 245.561C49.0429 245.929 48.9517 246.323 48.9517 246.744V247.42C48.9517 247.997 49.0511 248.486 49.25 248.887C49.4522 249.285 49.7322 249.588 50.0902 249.797C50.4482 250.002 50.8641 250.105 51.3381 250.105C51.6463 250.105 51.9247 250.062 52.1733 249.976C52.4252 249.886 52.6423 249.754 52.8246 249.578C53.0069 249.399 53.1477 249.177 53.2472 248.912L54.3807 249.23C54.2614 249.615 54.0608 249.953 53.7791 250.244C53.4974 250.533 53.1494 250.758 52.7351 250.92C52.3208 251.08 51.8551 251.159 51.3381 251.159ZM59.3871 251.159C58.6712 251.159 58.0547 250.99 57.5376 250.652C57.0206 250.314 56.6229 249.848 56.3445 249.255C56.0661 248.662 55.9268 247.984 55.9268 247.222C55.9268 246.446 56.0694 245.762 56.3544 245.168C56.6428 244.572 57.0438 244.106 57.5575 243.771C58.0746 243.433 58.6778 243.264 59.3672 243.264C59.9041 243.264 60.388 243.364 60.8189 243.562C61.2498 243.761 61.6027 244.04 61.8778 244.398C62.1529 244.756 62.3236 245.173 62.3899 245.651H61.2166C61.1271 245.303 60.9283 244.994 60.62 244.726C60.3151 244.454 59.9041 244.318 59.3871 244.318C58.9297 244.318 58.5286 244.437 58.1839 244.676C57.8426 244.911 57.5758 245.245 57.3835 245.675C57.1946 246.103 57.1001 246.605 57.1001 247.182C57.1001 247.772 57.1929 248.286 57.3786 248.723C57.5675 249.161 57.8326 249.5 58.174 249.742C58.5187 249.984 58.9231 250.105 59.3871 250.105C59.692 250.105 59.9688 250.052 60.2173 249.946C60.4659 249.84 60.6764 249.688 60.8487 249.489C61.0211 249.29 61.1437 249.051 61.2166 248.773H62.3899C62.3236 249.223 62.1596 249.629 61.8977 249.991C61.6392 250.349 61.2962 250.634 60.8686 250.846C60.4444 251.055 59.9505 251.159 59.3871 251.159ZM68.0227 251V250.105L71.3835 246.426C71.7779 245.995 72.1027 245.621 72.358 245.303C72.6132 244.981 72.8021 244.679 72.9247 244.398C73.0507 244.113 73.1136 243.814 73.1136 243.503C73.1136 243.145 73.0275 242.835 72.8551 242.573C72.6861 242.311 72.4541 242.109 72.1591 241.967C71.8641 241.824 71.5327 241.753 71.1648 241.753C70.7737 241.753 70.4323 241.834 70.1406 241.996C69.8523 242.156 69.6286 242.379 69.4695 242.668C69.3137 242.956 69.2358 243.294 69.2358 243.682H68.0625C68.0625 243.085 68.2 242.562 68.4751 242.111C68.7502 241.66 69.1248 241.309 69.5987 241.057C70.076 240.805 70.6113 240.679 71.2045 240.679C71.8011 240.679 72.3298 240.805 72.7905 241.057C73.2512 241.309 73.6125 241.648 73.8743 242.076C74.1361 242.504 74.267 242.979 74.267 243.503C74.267 243.877 74.1991 244.244 74.0632 244.602C73.9306 244.956 73.6986 245.352 73.3672 245.79C73.0391 246.224 72.5833 246.754 72 247.381L69.7131 249.827V249.906H74.446V251H68.0227ZM79.8203 251.139C79.0713 251.139 78.4332 250.935 77.9062 250.528C77.3793 250.117 76.9766 249.522 76.6982 248.743C76.4197 247.961 76.2805 247.016 76.2805 245.909C76.2805 244.809 76.4197 243.869 76.6982 243.09C76.9799 242.308 77.3842 241.711 77.9112 241.3C78.4415 240.886 79.0779 240.679 79.8203 240.679C80.5627 240.679 81.1974 240.886 81.7244 241.3C82.2547 241.711 82.6591 242.308 82.9375 243.09C83.2192 243.869 83.3601 244.809 83.3601 245.909C83.3601 247.016 83.2209 247.961 82.9425 248.743C82.6641 249.522 82.2614 250.117 81.7344 250.528C81.2074 250.935 80.5694 251.139 79.8203 251.139ZM79.8203 250.045C80.5627 250.045 81.1394 249.687 81.5504 248.972C81.9614 248.256 82.1669 247.235 82.1669 245.909C82.1669 245.027 82.0724 244.277 81.8835 243.657C81.6979 243.037 81.4295 242.565 81.0781 242.24C80.7301 241.915 80.3108 241.753 79.8203 241.753C79.0845 241.753 78.5095 242.116 78.0952 242.842C77.6809 243.564 77.4737 244.587 77.4737 245.909C77.4737 246.791 77.5665 247.54 77.7521 248.156C77.9377 248.773 78.2045 249.242 78.5526 249.563C78.9039 249.885 79.3265 250.045 79.8203 250.045ZM85.2493 251V250.105L88.6101 246.426C89.0045 245.995 89.3293 245.621 89.5845 245.303C89.8397 244.981 90.0286 244.679 90.1513 244.398C90.2772 244.113 90.3402 243.814 90.3402 243.503C90.3402 243.145 90.254 242.835 90.0817 242.573C89.9126 242.311 89.6806 242.109 89.3857 241.967C89.0907 241.824 88.7592 241.753 88.3913 241.753C88.0002 241.753 87.6589 241.834 87.3672 241.996C87.0788 242.156 86.8551 242.379 86.696 242.668C86.5402 242.956 86.4624 243.294 86.4624 243.682H85.2891C85.2891 243.085 85.4266 242.562 85.7017 242.111C85.9768 241.66 86.3513 241.309 86.8253 241.057C87.3026 240.805 87.8378 240.679 88.4311 240.679C89.0277 240.679 89.5563 240.805 90.017 241.057C90.4777 241.309 90.839 241.648 91.1009 242.076C91.3627 242.504 91.4936 242.979 91.4936 243.503C91.4936 243.877 91.4257 244.244 91.2898 244.602C91.1572 244.956 90.9252 245.352 90.5938 245.79C90.2656 246.224 89.8099 246.754 89.2266 247.381L86.9396 249.827V249.906H91.6726V251H85.2493ZM97.1662 251.139C96.5099 251.139 95.925 251.027 95.4112 250.801C94.9008 250.576 94.4948 250.263 94.1932 249.862C93.8949 249.457 93.7325 248.988 93.706 248.455H94.9588C94.9853 248.783 95.098 249.066 95.2969 249.305C95.4957 249.54 95.7559 249.722 96.0774 249.852C96.3989 249.981 96.7552 250.045 97.1463 250.045C97.5838 250.045 97.9716 249.969 98.3097 249.817C98.6477 249.664 98.9129 249.452 99.1051 249.18C99.2973 248.909 99.3935 248.594 99.3935 248.236C99.3935 247.861 99.3007 247.531 99.1151 247.246C98.9295 246.958 98.6577 246.733 98.2997 246.57C97.9418 246.408 97.5043 246.327 96.9872 246.327H96.1719V245.233H96.9872C97.3916 245.233 97.7462 245.16 98.0511 245.014C98.3594 244.868 98.5997 244.663 98.772 244.398C98.9477 244.133 99.0355 243.821 99.0355 243.463C99.0355 243.118 98.9593 242.818 98.8068 242.563C98.6544 242.308 98.4389 242.109 98.1605 241.967C97.8854 241.824 97.5606 241.753 97.1861 241.753C96.8348 241.753 96.5033 241.817 96.1918 241.947C95.8835 242.073 95.6316 242.257 95.4361 242.499C95.2405 242.737 95.1345 243.026 95.1179 243.364H93.9247C93.9446 242.83 94.1054 242.363 94.407 241.962C94.7086 241.557 95.103 241.242 95.5902 241.017C96.0807 240.792 96.6193 240.679 97.206 240.679C97.8357 240.679 98.3759 240.807 98.8267 241.062C99.2775 241.314 99.6238 241.647 99.8658 242.061C100.108 242.475 100.229 242.923 100.229 243.403C100.229 243.977 100.078 244.466 99.7763 244.87C99.478 245.274 99.072 245.554 98.5582 245.71V245.79C99.2012 245.896 99.7034 246.169 100.065 246.61C100.426 247.048 100.607 247.589 100.607 248.236C100.607 248.789 100.456 249.286 100.154 249.727C99.8558 250.165 99.4482 250.509 98.9311 250.761C98.4141 251.013 97.8258 251.139 97.1662 251.139Z" fill="#646464"/>
<path d="M137.233 251V240.818H143.338V241.912H138.466V245.352H142.881V246.446H138.466V251H137.233ZM147.932 251.159C147.196 251.159 146.561 250.997 146.028 250.672C145.497 250.344 145.088 249.886 144.8 249.3C144.515 248.71 144.372 248.024 144.372 247.241C144.372 246.459 144.515 245.77 144.8 245.173C145.088 244.573 145.489 244.106 146.003 243.771C146.52 243.433 147.123 243.264 147.812 243.264C148.21 243.264 148.603 243.33 148.991 243.463C149.379 243.596 149.732 243.811 150.05 244.109C150.368 244.404 150.621 244.795 150.81 245.283C150.999 245.77 151.094 246.37 151.094 247.082V247.58H145.207V246.565H149.901C149.901 246.134 149.814 245.75 149.642 245.412C149.473 245.074 149.231 244.807 148.916 244.612C148.605 244.416 148.237 244.318 147.812 244.318C147.345 244.318 146.941 244.434 146.599 244.666C146.261 244.895 146.001 245.193 145.819 245.561C145.637 245.929 145.545 246.323 145.545 246.744V247.42C145.545 247.997 145.645 248.486 145.844 248.887C146.046 249.285 146.326 249.588 146.684 249.797C147.042 250.002 147.458 250.105 147.932 250.105C148.24 250.105 148.518 250.062 148.767 249.976C149.019 249.886 149.236 249.754 149.418 249.578C149.601 249.399 149.741 249.177 149.841 248.912L150.974 249.23C150.855 249.615 150.655 249.953 150.373 250.244C150.091 250.533 149.743 250.758 149.329 250.92C148.915 251.08 148.449 251.159 147.932 251.159ZM153.038 251V240.818H154.211V244.577H154.31C154.397 244.444 154.516 244.275 154.668 244.07C154.824 243.861 155.046 243.675 155.335 243.513C155.626 243.347 156.021 243.264 156.518 243.264C157.161 243.264 157.728 243.425 158.218 243.746C158.709 244.068 159.091 244.524 159.366 245.114C159.642 245.704 159.779 246.4 159.779 247.202C159.779 248.01 159.642 248.711 159.366 249.305C159.091 249.895 158.71 250.352 158.223 250.677C157.736 250.998 157.174 251.159 156.538 251.159C156.047 251.159 155.654 251.078 155.359 250.915C155.064 250.75 154.837 250.562 154.678 250.354C154.519 250.142 154.397 249.966 154.31 249.827H154.171V251H153.038ZM154.191 247.182C154.191 247.759 154.276 248.267 154.445 248.708C154.614 249.146 154.861 249.489 155.185 249.737C155.51 249.982 155.908 250.105 156.379 250.105C156.869 250.105 157.278 249.976 157.607 249.717C157.938 249.455 158.187 249.104 158.352 248.663C158.521 248.219 158.606 247.725 158.606 247.182C158.606 246.645 158.523 246.161 158.357 245.73C158.195 245.296 157.948 244.953 157.616 244.701C157.288 244.446 156.876 244.318 156.379 244.318C155.901 244.318 155.5 244.439 155.175 244.681C154.851 244.92 154.605 245.254 154.44 245.685C154.274 246.113 154.191 246.612 154.191 247.182ZM165.491 251V250.105L168.852 246.426C169.247 245.995 169.571 245.621 169.827 245.303C170.082 244.981 170.271 244.679 170.393 244.398C170.519 244.113 170.582 243.814 170.582 243.503C170.582 243.145 170.496 242.835 170.324 242.573C170.155 242.311 169.923 242.109 169.628 241.967C169.333 241.824 169.001 241.753 168.634 241.753C168.242 241.753 167.901 241.834 167.609 241.996C167.321 242.156 167.097 242.379 166.938 242.668C166.782 242.956 166.705 243.294 166.705 243.682H165.531C165.531 243.085 165.669 242.562 165.944 242.111C166.219 241.66 166.594 241.309 167.067 241.057C167.545 240.805 168.08 240.679 168.673 240.679C169.27 240.679 169.799 240.805 170.259 241.057C170.72 241.309 171.081 241.648 171.343 242.076C171.605 242.504 171.736 242.979 171.736 243.503C171.736 243.877 171.668 244.244 171.532 244.602C171.399 244.956 171.167 245.352 170.836 245.79C170.508 246.224 170.052 246.754 169.469 247.381L167.182 249.827V249.906H171.915V251H165.491ZM177.289 251.139C176.54 251.139 175.902 250.935 175.375 250.528C174.848 250.117 174.445 249.522 174.167 248.743C173.888 247.961 173.749 247.016 173.749 245.909C173.749 244.809 173.888 243.869 174.167 243.09C174.449 242.308 174.853 241.711 175.38 241.3C175.91 240.886 176.547 240.679 177.289 240.679C178.031 240.679 178.666 240.886 179.193 241.3C179.723 241.711 180.128 242.308 180.406 243.09C180.688 243.869 180.829 244.809 180.829 245.909C180.829 247.016 180.69 247.961 180.411 248.743C180.133 249.522 179.73 250.117 179.203 250.528C178.676 250.935 178.038 251.139 177.289 251.139ZM177.289 250.045C178.031 250.045 178.608 249.687 179.019 248.972C179.43 248.256 179.636 247.235 179.636 245.909C179.636 245.027 179.541 244.277 179.352 243.657C179.167 243.037 178.898 242.565 178.547 242.24C178.199 241.915 177.78 241.753 177.289 241.753C176.553 241.753 175.978 242.116 175.564 242.842C175.15 243.564 174.942 244.587 174.942 245.909C174.942 246.791 175.035 247.54 175.221 248.156C175.406 248.773 175.673 249.242 176.021 249.563C176.373 249.885 176.795 250.045 177.289 250.045ZM182.718 251V250.105L186.079 246.426C186.473 245.995 186.798 245.621 187.053 245.303C187.308 244.981 187.497 244.679 187.62 244.398C187.746 244.113 187.809 243.814 187.809 243.503C187.809 243.145 187.723 242.835 187.55 242.573C187.381 242.311 187.149 242.109 186.854 241.967C186.559 241.824 186.228 241.753 185.86 241.753C185.469 241.753 185.128 241.834 184.836 241.996C184.548 242.156 184.324 242.379 184.165 242.668C184.009 242.956 183.931 243.294 183.931 243.682H182.758C182.758 243.085 182.895 242.562 183.17 242.111C183.446 241.66 183.82 241.309 184.294 241.057C184.771 240.805 185.307 240.679 185.9 240.679C186.496 240.679 187.025 240.805 187.486 241.057C187.946 241.309 188.308 241.648 188.57 242.076C188.831 242.504 188.962 242.979 188.962 243.503C188.962 243.877 188.894 244.244 188.759 244.602C188.626 244.956 188.394 245.352 188.062 245.79C187.734 246.224 187.279 246.754 186.695 247.381L184.408 249.827V249.906H189.141V251H182.718ZM190.737 248.912V247.898L195.212 240.818H195.947V242.389H195.45L192.07 247.739V247.818H198.095V248.912H190.737ZM195.53 251V248.604V248.131V240.818H196.703V251H195.53Z" fill="#646464"/>
<path d="M234.233 240.818H235.705L239.165 249.27H239.284L242.744 240.818H244.216V251H243.062V243.264H242.963L239.781 251H238.668L235.486 243.264H235.386V251H234.233V240.818ZM248.776 251.179C248.292 251.179 247.853 251.088 247.459 250.906C247.064 250.72 246.751 250.453 246.519 250.105C246.287 249.754 246.171 249.33 246.171 248.832C246.171 248.395 246.257 248.04 246.43 247.768C246.602 247.493 246.832 247.278 247.121 247.122C247.409 246.966 247.727 246.85 248.075 246.774C248.426 246.695 248.779 246.632 249.134 246.585C249.598 246.526 249.974 246.481 250.263 246.451C250.554 246.418 250.766 246.363 250.899 246.287C251.035 246.211 251.103 246.078 251.103 245.889V245.849C251.103 245.359 250.969 244.978 250.7 244.706C250.435 244.434 250.032 244.298 249.492 244.298C248.932 244.298 248.493 244.421 248.175 244.666C247.856 244.911 247.633 245.173 247.503 245.452L246.39 245.054C246.589 244.59 246.854 244.229 247.185 243.97C247.52 243.708 247.885 243.526 248.279 243.423C248.677 243.317 249.068 243.264 249.452 243.264C249.698 243.264 249.979 243.294 250.297 243.354C250.619 243.41 250.929 243.528 251.227 243.707C251.529 243.886 251.779 244.156 251.978 244.517C252.177 244.878 252.276 245.362 252.276 245.969V251H251.103V249.966H251.043C250.964 250.132 250.831 250.309 250.645 250.498C250.46 250.687 250.213 250.848 249.905 250.98C249.596 251.113 249.22 251.179 248.776 251.179ZM248.955 250.125C249.419 250.125 249.81 250.034 250.128 249.852C250.45 249.669 250.692 249.434 250.854 249.146C251.02 248.857 251.103 248.554 251.103 248.236V247.162C251.053 247.222 250.944 247.276 250.775 247.326C250.609 247.372 250.417 247.414 250.198 247.45C249.983 247.483 249.772 247.513 249.567 247.54C249.364 247.563 249.2 247.583 249.074 247.599C248.769 247.639 248.484 247.704 248.219 247.793C247.957 247.879 247.745 248.01 247.583 248.186C247.424 248.358 247.344 248.594 247.344 248.892C247.344 249.3 247.495 249.608 247.797 249.817C248.102 250.022 248.488 250.125 248.955 250.125ZM254.418 251V243.364H255.551V244.517H255.631C255.77 244.139 256.022 243.833 256.386 243.597C256.751 243.362 257.162 243.244 257.619 243.244C257.705 243.244 257.813 243.246 257.942 243.249C258.072 243.253 258.17 243.258 258.236 243.264V244.457C258.196 244.447 258.105 244.433 257.962 244.413C257.823 244.389 257.676 244.378 257.52 244.378C257.149 244.378 256.817 244.456 256.526 244.612C256.237 244.764 256.009 244.976 255.839 245.248C255.674 245.516 255.591 245.823 255.591 246.168V251H254.418Z" fill="#646464"/>
<path d="M294.651 251H293.358L297.097 240.818H298.369L302.108 251H300.815L297.773 242.429H297.693L294.651 251ZM295.128 247.023H300.338V248.116H295.128V247.023ZM303.535 253.864V243.364H304.668V244.577H304.808C304.894 244.444 305.013 244.275 305.165 244.07C305.321 243.861 305.543 243.675 305.832 243.513C306.123 243.347 306.518 243.264 307.015 243.264C307.658 243.264 308.225 243.425 308.715 243.746C309.206 244.068 309.589 244.524 309.864 245.114C310.139 245.704 310.276 246.4 310.276 247.202C310.276 248.01 310.139 248.711 309.864 249.305C309.589 249.895 309.207 250.352 308.72 250.677C308.233 250.998 307.671 251.159 307.035 251.159C306.544 251.159 306.152 251.078 305.857 250.915C305.562 250.75 305.335 250.562 305.175 250.354C305.016 250.142 304.894 249.966 304.808 249.827H304.708V253.864H303.535ZM304.688 247.182C304.688 247.759 304.773 248.267 304.942 248.708C305.111 249.146 305.358 249.489 305.683 249.737C306.007 249.982 306.405 250.105 306.876 250.105C307.366 250.105 307.776 249.976 308.104 249.717C308.435 249.455 308.684 249.104 308.849 248.663C309.018 248.219 309.103 247.725 309.103 247.182C309.103 246.645 309.02 246.161 308.854 245.73C308.692 245.296 308.445 244.953 308.114 244.701C307.786 244.446 307.373 244.318 306.876 244.318C306.398 244.318 305.997 244.439 305.673 244.681C305.348 244.92 305.103 245.254 304.937 245.685C304.771 246.113 304.688 246.612 304.688 247.182ZM312.066 251V243.364H313.2V244.517H313.279C313.418 244.139 313.67 243.833 314.035 243.597C314.399 243.362 314.81 243.244 315.268 243.244C315.354 243.244 315.462 243.246 315.591 243.249C315.72 243.253 315.818 243.258 315.884 243.264V244.457C315.844 244.447 315.753 244.433 315.611 244.413C315.472 244.389 315.324 244.378 315.168 244.378C314.797 244.378 314.466 244.456 314.174 244.612C313.886 244.764 313.657 244.976 313.488 245.248C313.322 245.516 313.239 245.823 313.239 246.168V251H312.066Z" fill="#646464"/>
<path d="M352.233 240.818H353.705L357.165 249.27H357.284L360.744 240.818H362.216V251H361.062V243.264H360.963L357.781 251H356.668L353.486 243.264H353.386V251H352.233V240.818ZM366.776 251.179C366.292 251.179 365.853 251.088 365.459 250.906C365.064 250.72 364.751 250.453 364.519 250.105C364.287 249.754 364.171 249.33 364.171 248.832C364.171 248.395 364.257 248.04 364.43 247.768C364.602 247.493 364.832 247.278 365.121 247.122C365.409 246.966 365.727 246.85 366.075 246.774C366.426 246.695 366.779 246.632 367.134 246.585C367.598 246.526 367.974 246.481 368.263 246.451C368.554 246.418 368.766 246.363 368.899 246.287C369.035 246.211 369.103 246.078 369.103 245.889V245.849C369.103 245.359 368.969 244.978 368.7 244.706C368.435 244.434 368.032 244.298 367.492 244.298C366.932 244.298 366.493 244.421 366.175 244.666C365.856 244.911 365.633 245.173 365.503 245.452L364.39 245.054C364.589 244.59 364.854 244.229 365.185 243.97C365.52 243.708 365.885 243.526 366.279 243.423C366.677 243.317 367.068 243.264 367.452 243.264C367.698 243.264 367.979 243.294 368.297 243.354C368.619 243.41 368.929 243.528 369.227 243.707C369.529 243.886 369.779 244.156 369.978 244.517C370.177 244.878 370.276 245.362 370.276 245.969V251H369.103V249.966H369.043C368.964 250.132 368.831 250.309 368.645 250.498C368.46 250.687 368.213 250.848 367.905 250.98C367.596 251.113 367.22 251.179 366.776 251.179ZM366.955 250.125C367.419 250.125 367.81 250.034 368.128 249.852C368.45 249.669 368.692 249.434 368.854 249.146C369.02 248.857 369.103 248.554 369.103 248.236V247.162C369.053 247.222 368.944 247.276 368.775 247.326C368.609 247.372 368.417 247.414 368.198 247.45C367.983 247.483 367.772 247.513 367.567 247.54C367.364 247.563 367.2 247.583 367.074 247.599C366.769 247.639 366.484 247.704 366.219 247.793C365.957 247.879 365.745 248.01 365.583 248.186C365.424 248.358 365.344 248.594 365.344 248.892C365.344 249.3 365.495 249.608 365.797 249.817C366.102 250.022 366.488 250.125 366.955 250.125ZM372.9 253.864C372.701 253.864 372.524 253.847 372.368 253.814C372.212 253.784 372.104 253.754 372.045 253.724L372.343 252.69C372.628 252.763 372.88 252.79 373.099 252.77C373.317 252.75 373.511 252.652 373.68 252.477C373.853 252.304 374.01 252.024 374.153 251.636L374.371 251.04L371.548 243.364H372.82L374.928 249.449H375.008L377.116 243.364H378.388L375.147 252.114C375.001 252.508 374.821 252.835 374.605 253.093C374.39 253.355 374.139 253.549 373.854 253.675C373.573 253.801 373.254 253.864 372.9 253.864Z" fill="#646464"/>
<path d="M418.131 240.818H419.364V248.097C419.364 248.746 419.244 249.298 419.006 249.752C418.767 250.206 418.431 250.551 417.996 250.786C417.562 251.022 417.05 251.139 416.46 251.139C415.903 251.139 415.408 251.038 414.974 250.836C414.54 250.63 414.198 250.339 413.95 249.961C413.701 249.583 413.577 249.134 413.577 248.614H414.79C414.79 248.902 414.861 249.154 415.004 249.369C415.149 249.581 415.348 249.747 415.6 249.866C415.852 249.986 416.139 250.045 416.46 250.045C416.815 250.045 417.116 249.971 417.365 249.822C417.614 249.673 417.803 249.454 417.932 249.165C418.064 248.874 418.131 248.518 418.131 248.097V240.818ZM426.488 247.878V243.364H427.661V251H426.488V249.707H426.408C426.229 250.095 425.951 250.425 425.573 250.697C425.195 250.965 424.718 251.099 424.141 251.099C423.664 251.099 423.24 250.995 422.869 250.786C422.497 250.574 422.206 250.256 421.994 249.832C421.781 249.404 421.675 248.866 421.675 248.216V243.364H422.849V248.136C422.849 248.693 423.004 249.137 423.316 249.469C423.631 249.8 424.032 249.966 424.519 249.966C424.811 249.966 425.107 249.891 425.409 249.742C425.714 249.593 425.969 249.364 426.175 249.056C426.384 248.748 426.488 248.355 426.488 247.878ZM430.983 246.406V251H429.81V243.364H430.944V244.557H431.043C431.222 244.169 431.494 243.857 431.858 243.622C432.223 243.384 432.694 243.264 433.27 243.264C433.787 243.264 434.24 243.37 434.628 243.582C435.015 243.791 435.317 244.109 435.532 244.537C435.748 244.961 435.856 245.498 435.856 246.148V251H434.682V246.227C434.682 245.627 434.527 245.16 434.215 244.825C433.903 244.487 433.476 244.318 432.932 244.318C432.558 244.318 432.223 244.399 431.928 244.562C431.636 244.724 431.406 244.961 431.237 245.273C431.068 245.584 430.983 245.962 430.983 246.406Z" fill="#646464"/>
<path d="M476.601 240.818H477.834V248.097C477.834 248.746 477.715 249.298 477.476 249.752C477.238 250.206 476.901 250.551 476.467 250.786C476.033 251.022 475.521 251.139 474.931 251.139C474.374 251.139 473.879 251.038 473.444 250.836C473.01 250.63 472.669 250.339 472.42 249.961C472.172 249.583 472.047 249.134 472.047 248.614H473.26C473.26 248.902 473.332 249.154 473.474 249.369C473.62 249.581 473.819 249.747 474.071 249.866C474.323 249.986 474.609 250.045 474.931 250.045C475.286 250.045 475.587 249.971 475.836 249.822C476.084 249.673 476.273 249.454 476.403 249.165C476.535 248.874 476.601 248.518 476.601 248.097V240.818ZM484.959 247.878V243.364H486.132V251H484.959V249.707H484.879C484.7 250.095 484.422 250.425 484.044 250.697C483.666 250.965 483.189 251.099 482.612 251.099C482.135 251.099 481.711 250.995 481.339 250.786C480.968 250.574 480.676 250.256 480.464 249.832C480.252 249.404 480.146 248.866 480.146 248.216V243.364H481.319V248.136C481.319 248.693 481.475 249.137 481.787 249.469C482.102 249.8 482.503 249.966 482.99 249.966C483.282 249.966 483.578 249.891 483.88 249.742C484.185 249.593 484.44 249.364 484.645 249.056C484.854 248.748 484.959 248.355 484.959 247.878ZM489.454 240.818V251H488.281V240.818H489.454Z" fill="#646464"/>
<path d="M527.087 251H525.794L529.533 240.818H530.806L534.544 251H533.252L530.209 242.429H530.13L527.087 251ZM527.564 247.023H532.775V248.116H527.564V247.023ZM540.784 247.878V243.364H541.957V251H540.784V249.707H540.704C540.525 250.095 540.247 250.425 539.869 250.697C539.491 250.965 539.014 251.099 538.437 251.099C537.96 251.099 537.536 250.995 537.165 250.786C536.793 250.574 536.502 250.256 536.29 249.832C536.077 249.404 535.971 248.866 535.971 248.216V243.364H537.145V248.136C537.145 248.693 537.3 249.137 537.612 249.469C537.927 249.8 538.328 249.966 538.815 249.966C539.107 249.966 539.403 249.891 539.705 249.742C540.01 249.593 540.265 249.364 540.471 249.056C540.679 248.748 540.784 248.355 540.784 247.878ZM547.188 254.023C546.622 254.023 546.134 253.95 545.727 253.804C545.319 253.661 544.979 253.473 544.708 253.237C544.439 253.005 544.225 252.757 544.066 252.491L545.001 251.835C545.107 251.974 545.241 252.134 545.404 252.312C545.566 252.495 545.788 252.652 546.07 252.785C546.355 252.921 546.728 252.989 547.188 252.989C547.805 252.989 548.314 252.839 548.715 252.541C549.116 252.243 549.316 251.776 549.316 251.139V249.588H549.217C549.131 249.727 549.008 249.9 548.849 250.105C548.693 250.307 548.468 250.488 548.173 250.647C547.881 250.803 547.487 250.881 546.99 250.881C546.373 250.881 545.82 250.735 545.329 250.443C544.842 250.152 544.456 249.727 544.171 249.17C543.889 248.614 543.748 247.937 543.748 247.142C543.748 246.36 543.886 245.679 544.161 245.099C544.436 244.515 544.819 244.065 545.309 243.746C545.8 243.425 546.367 243.264 547.009 243.264C547.507 243.264 547.901 243.347 548.193 243.513C548.488 243.675 548.713 243.861 548.869 244.07C549.028 244.275 549.151 244.444 549.237 244.577H549.356V243.364H550.49V251.219C550.49 251.875 550.34 252.409 550.042 252.82C549.747 253.234 549.349 253.537 548.849 253.729C548.352 253.925 547.798 254.023 547.188 254.023ZM547.149 249.827C547.619 249.827 548.017 249.719 548.342 249.504C548.667 249.288 548.914 248.978 549.083 248.574C549.252 248.17 549.336 247.686 549.336 247.122C549.336 246.572 549.253 246.086 549.088 245.665C548.922 245.245 548.677 244.915 548.352 244.676C548.027 244.437 547.626 244.318 547.149 244.318C546.652 244.318 546.237 244.444 545.906 244.696C545.578 244.948 545.331 245.286 545.165 245.71C545.003 246.134 544.921 246.605 544.921 247.122C544.921 247.652 545.004 248.121 545.17 248.529C545.339 248.933 545.588 249.252 545.916 249.484C546.247 249.712 546.658 249.827 547.149 249.827Z" fill="#646464"/>
<path d="M592.997 243.364C592.938 242.86 592.696 242.469 592.272 242.19C591.847 241.912 591.327 241.773 590.71 241.773C590.26 241.773 589.865 241.846 589.527 241.991C589.193 242.137 588.931 242.338 588.742 242.593C588.556 242.848 588.463 243.138 588.463 243.463C588.463 243.735 588.528 243.969 588.657 244.164C588.79 244.356 588.959 244.517 589.164 244.646C589.37 244.772 589.585 244.877 589.811 244.96C590.036 245.039 590.243 245.104 590.432 245.153L591.466 245.432C591.731 245.501 592.026 245.598 592.351 245.72C592.679 245.843 592.992 246.01 593.291 246.222C593.592 246.431 593.841 246.7 594.036 247.028C594.232 247.356 594.33 247.759 594.33 248.236C594.33 248.786 594.186 249.283 593.897 249.727C593.612 250.171 593.195 250.524 592.644 250.786C592.098 251.048 591.433 251.179 590.651 251.179C589.922 251.179 589.29 251.061 588.757 250.826C588.226 250.591 587.809 250.263 587.504 249.842C587.202 249.421 587.032 248.932 586.992 248.375H588.264C588.298 248.759 588.427 249.078 588.652 249.33C588.881 249.578 589.169 249.764 589.517 249.886C589.869 250.006 590.246 250.065 590.651 250.065C591.121 250.065 591.544 249.989 591.919 249.837C592.293 249.681 592.59 249.465 592.809 249.19C593.027 248.912 593.137 248.587 593.137 248.216C593.137 247.878 593.042 247.603 592.853 247.391C592.664 247.179 592.416 247.006 592.108 246.874C591.799 246.741 591.466 246.625 591.108 246.526L589.855 246.168C589.06 245.939 588.43 245.612 587.966 245.188C587.502 244.764 587.27 244.209 587.27 243.523C587.27 242.953 587.424 242.455 587.733 242.031C588.044 241.604 588.462 241.272 588.985 241.037C589.512 240.798 590.101 240.679 590.75 240.679C591.407 240.679 591.99 240.797 592.5 241.032C593.011 241.264 593.415 241.582 593.713 241.987C594.015 242.391 594.174 242.85 594.191 243.364H592.997ZM599.4 251.159C598.664 251.159 598.029 250.997 597.495 250.672C596.965 250.344 596.556 249.886 596.267 249.3C595.982 248.71 595.84 248.024 595.84 247.241C595.84 246.459 595.982 245.77 596.267 245.173C596.556 244.573 596.957 244.106 597.471 243.771C597.988 243.433 598.591 243.264 599.28 243.264C599.678 243.264 600.071 243.33 600.459 243.463C600.846 243.596 601.199 243.811 601.517 244.109C601.836 244.404 602.089 244.795 602.278 245.283C602.467 245.77 602.562 246.37 602.562 247.082V247.58H596.675V246.565H601.368C601.368 246.134 601.282 245.75 601.11 245.412C600.941 245.074 600.699 244.807 600.384 244.612C600.072 244.416 599.705 244.318 599.28 244.318C598.813 244.318 598.409 244.434 598.067 244.666C597.729 244.895 597.469 245.193 597.287 245.561C597.104 245.929 597.013 246.323 597.013 246.744V247.42C597.013 247.997 597.113 248.486 597.312 248.887C597.514 249.285 597.794 249.588 598.152 249.797C598.51 250.002 598.926 250.105 599.4 250.105C599.708 250.105 599.986 250.062 600.235 249.976C600.487 249.886 600.704 249.754 600.886 249.578C601.068 249.399 601.209 249.177 601.309 248.912L602.442 249.23C602.323 249.615 602.122 249.953 601.841 250.244C601.559 250.533 601.211 250.758 600.797 250.92C600.382 251.08 599.917 251.159 599.4 251.159ZM604.346 253.864V243.364H605.48V244.577H605.619C605.705 244.444 605.825 244.275 605.977 244.07C606.133 243.861 606.355 243.675 606.643 243.513C606.935 243.347 607.329 243.264 607.826 243.264C608.469 243.264 609.036 243.425 609.527 243.746C610.017 244.068 610.4 244.524 610.675 245.114C610.95 245.704 611.088 246.4 611.088 247.202C611.088 248.01 610.95 248.711 610.675 249.305C610.4 249.895 610.019 250.352 609.532 250.677C609.044 250.998 608.483 251.159 607.846 251.159C607.356 251.159 606.963 251.078 606.668 250.915C606.373 250.75 606.146 250.562 605.987 250.354C605.828 250.142 605.705 249.966 605.619 249.827H605.52V253.864H604.346ZM605.5 247.182C605.5 247.759 605.584 248.267 605.753 248.708C605.922 249.146 606.169 249.489 606.494 249.737C606.819 249.982 607.217 250.105 607.687 250.105C608.178 250.105 608.587 249.976 608.915 249.717C609.247 249.455 609.495 249.104 609.661 248.663C609.83 248.219 609.915 247.725 609.915 247.182C609.915 246.645 609.832 246.161 609.666 245.73C609.504 245.296 609.257 244.953 608.925 244.701C608.597 244.446 608.184 244.318 607.687 244.318C607.21 244.318 606.809 244.439 606.484 244.681C606.159 244.92 605.914 245.254 605.748 245.685C605.583 246.113 605.5 246.612 605.5 247.182Z" fill="#646464"/>
<path d="M656.039 245.909C656.039 246.983 655.845 247.911 655.457 248.693C655.069 249.475 654.537 250.079 653.861 250.503C653.185 250.927 652.413 251.139 651.544 251.139C650.676 251.139 649.904 250.927 649.228 250.503C648.551 250.079 648.02 249.475 647.632 248.693C647.244 247.911 647.05 246.983 647.05 245.909C647.05 244.835 647.244 243.907 647.632 243.125C648.02 242.343 648.551 241.74 649.228 241.315C649.904 240.891 650.676 240.679 651.544 240.679C652.413 240.679 653.185 240.891 653.861 241.315C654.537 241.74 655.069 242.343 655.457 243.125C655.845 243.907 656.039 244.835 656.039 245.909ZM654.846 245.909C654.846 245.027 654.698 244.283 654.403 243.677C654.111 243.07 653.715 242.611 653.215 242.3C652.718 241.988 652.161 241.832 651.544 241.832C650.928 241.832 650.369 241.988 649.869 242.3C649.372 242.611 648.976 243.07 648.681 243.677C648.389 244.283 648.243 245.027 648.243 245.909C648.243 246.791 648.389 247.535 648.681 248.141C648.976 248.748 649.372 249.207 649.869 249.518C650.369 249.83 650.928 249.986 651.544 249.986C652.161 249.986 652.718 249.83 653.215 249.518C653.715 249.207 654.111 248.748 654.403 248.141C654.698 247.535 654.846 246.791 654.846 245.909ZM661.055 251.159C660.339 251.159 659.723 250.99 659.206 250.652C658.689 250.314 658.291 249.848 658.012 249.255C657.734 248.662 657.595 247.984 657.595 247.222C657.595 246.446 657.737 245.762 658.022 245.168C658.311 244.572 658.712 244.106 659.225 243.771C659.743 243.433 660.346 243.264 661.035 243.264C661.572 243.264 662.056 243.364 662.487 243.562C662.918 243.761 663.271 244.04 663.546 244.398C663.821 244.756 663.992 245.173 664.058 245.651H662.885C662.795 245.303 662.596 244.994 662.288 244.726C661.983 244.454 661.572 244.318 661.055 244.318C660.598 244.318 660.197 244.437 659.852 244.676C659.511 244.911 659.244 245.245 659.051 245.675C658.863 246.103 658.768 246.605 658.768 247.182C658.768 247.772 658.861 248.286 659.047 248.723C659.235 249.161 659.501 249.5 659.842 249.742C660.187 249.984 660.591 250.105 661.055 250.105C661.36 250.105 661.637 250.052 661.885 249.946C662.134 249.84 662.344 249.688 662.517 249.489C662.689 249.29 662.812 249.051 662.885 248.773H664.058C663.992 249.223 663.828 249.629 663.566 249.991C663.307 250.349 662.964 250.634 662.537 250.846C662.112 251.055 661.618 251.159 661.055 251.159ZM669.094 243.364V244.358H665.137V243.364H669.094ZM666.29 241.534H667.463V248.812C667.463 249.144 667.511 249.393 667.608 249.558C667.707 249.721 667.833 249.83 667.985 249.886C668.141 249.939 668.305 249.966 668.478 249.966C668.607 249.966 668.713 249.959 668.796 249.946C668.879 249.929 668.945 249.916 668.995 249.906L669.233 250.96C669.154 250.99 669.043 251.02 668.9 251.05C668.758 251.083 668.577 251.099 668.358 251.099C668.027 251.099 667.702 251.028 667.384 250.886C667.069 250.743 666.807 250.526 666.598 250.234C666.393 249.943 666.29 249.575 666.29 249.131V241.534Z" fill="#646464"/>
</g>
<g clip-path="url(#clip0_13402_255)">
<g opacity="0.15">
<path d="M38 0H670" stroke="#4F78E0"/>
<path d="M38 53.2H670" stroke="#4F78E0"/>
<path d="M38 106.4H670" stroke="#4F78E0"/>
<path d="M38 159.6H670" stroke="#4F78E0"/>
<path d="M38 212.8H670" stroke="#4F78E0"/>
</g>
<g opacity="0.15">
<path d="M73 266L73 4.41913e-06" stroke="#4F78E0"/>
<path d="M156.336 266L156.336 4.41913e-06" stroke="#4F78E0"/>
<path d="M239.664 266L239.664 4.41913e-06" stroke="#4F78E0"/>
<path d="M323 266V4.41913e-06" stroke="#4F78E0"/>
<path d="M406.336 266V4.41913e-06" stroke="#4F78E0"/>
<path d="M489.664 266V4.41913e-06" stroke="#4F78E0"/>
<path d="M573 266V4.41913e-06" stroke="#4F78E0"/>
<path d="M656.336 266V4.41913e-06" stroke="#4F78E0"/>
</g>
<path d="M38 160.888C59.4362 144.986 115.497 116.395 168.252 129.251C234.195 145.32 260.9 195.036 314.853 171.936C368.807 148.836 365.537 79.0338 422.761 81.0425C479.985 83.0512 485.979 184.49 569.907 182.983C637.05 181.778 667.278 175.116 674 171.936" stroke="#EA7465" stroke-width="2" stroke-dasharray="8 8"/>
<path d="M38 137.757C45.9464 133.912 65.2295 128.529 78.7913 137.757C95.7435 149.293 103.16 157.82 117.464 155.813C131.767 153.807 147.66 97.6331 174.677 99.6393C201.695 101.646 211.231 150.296 234.54 149.293C257.849 148.29 250.962 123.212 267.385 122.209C283.807 121.206 276.92 142.773 294.402 143.776C311.884 144.779 322.479 59.515 350.027 61.0197C377.574 62.5243 388.699 154.81 422.604 149.293C456.508 143.776 449.091 135.25 470.282 145.782C491.472 156.315 488.823 164.34 507.894 147.287C526.966 130.234 525.376 122.209 538.091 123.714C550.805 125.219 548.686 160.829 579.941 157.82C611.197 154.81 606.959 60.5181 628.679 61.0197C650.399 61.5212 642.453 140.265 670 138.761" stroke="url(#paint0_linear_13402_255)" stroke-width="4" stroke-linecap="round"/>
</g>
<defs>
<linearGradient id="paint0_linear_13402_255" x1="38" y1="109.5" x2="670" y2="109.5" gradientUnits="userSpaceOnUse">
<stop offset="0.355" stop-color="#3183FF"/>
<stop offset="1" stop-color="#EA7465"/>
</linearGradient>
<clipPath id="clip0_13402_255">
<rect width="632" height="219" fill="white" transform="translate(38)"/>
</clipPath>
</defs>
</svg>
