<svg width="18" height="18" viewBox="0 0 18 18" fill="none" xmlns="http://www.w3.org/2000/svg">
<path d="M6.10469 0.956238H2.53281C1.57656 0.956238 0.789062 1.74374 0.789062 2.69999V6.27186C0.789062 7.22811 1.57656 8.01561 2.53281 8.01561H6.10469C7.06094 8.01561 7.84844 7.22811 7.84844 6.27186V2.72811C7.87656 1.74374 7.08906 0.956238 6.10469 0.956238ZM6.61094 6.29999C6.61094 6.58124 6.38594 6.80624 6.10469 6.80624H2.53281C2.25156 6.80624 2.02656 6.58124 2.02656 6.29999V2.72811C2.02656 2.44686 2.25156 2.22186 2.53281 2.22186H6.10469C6.38594 2.22186 6.61094 2.44686 6.61094 2.72811V6.29999Z" fill="#130D33"/>
<path d="M15.4719 0.956238H11.9C10.9438 0.956238 10.1562 1.74374 10.1562 2.69999V6.27186C10.1562 7.22811 10.9438 8.01561 11.9 8.01561H15.4719C16.4281 8.01561 17.2156 7.22811 17.2156 6.27186V2.72811C17.2156 1.74374 16.4281 0.956238 15.4719 0.956238ZM15.9781 6.29999C15.9781 6.58124 15.7531 6.80624 15.4719 6.80624H11.9C11.6188 6.80624 11.3938 6.58124 11.3938 6.29999V2.72811C11.3938 2.44686 11.6188 2.22186 11.9 2.22186H15.4719C15.7531 2.22186 15.9781 2.44686 15.9781 2.72811V6.29999Z" fill="#130D33"/>
<path d="M6.10469 9.9281H2.53281C1.57656 9.9281 0.789062 10.7156 0.789062 11.6719V15.2437C0.789062 16.2 1.57656 16.9875 2.53281 16.9875H6.10469C7.06094 16.9875 7.84844 16.2 7.84844 15.2437V11.7C7.87656 10.7156 7.08906 9.9281 6.10469 9.9281ZM6.61094 15.2719C6.61094 15.5531 6.38594 15.7781 6.10469 15.7781H2.53281C2.25156 15.7781 2.02656 15.5531 2.02656 15.2719V11.7C2.02656 11.4187 2.25156 11.1937 2.53281 11.1937H6.10469C6.38594 11.1937 6.61094 11.4187 6.61094 11.7V15.2719Z" fill="#130D33"/>
<path d="M15.4719 9.9281H11.9C10.9438 9.9281 10.1562 10.7156 10.1562 11.6719V15.2437C10.1562 16.2 10.9438 16.9875 11.9 16.9875H15.4719C16.4281 16.9875 17.2156 16.2 17.2156 15.2437V11.7C17.2156 10.7156 16.4281 9.9281 15.4719 9.9281ZM15.9781 15.2719C15.9781 15.5531 15.7531 15.7781 15.4719 15.7781H11.9C11.6188 15.7781 11.3938 15.5531 11.3938 15.2719V11.7C11.3938 11.4187 11.6188 11.1937 11.9 11.1937H15.4719C15.7531 11.1937 15.9781 11.4187 15.9781 11.7V15.2719Z" fill="#130D33"/>
</svg>
