<svg width="18" height="18" viewBox="0 0 18 18" fill="none" xmlns="http://www.w3.org/2000/svg">
<path d="M15.7484 2.98126H14.2859V2.36251C14.2859 2.02501 14.0047 1.71564 13.6391 1.71564C13.2734 1.71564 12.9922 1.99689 12.9922 2.36251V2.98126H4.97656V2.36251C4.97656 2.02501 4.69531 1.71564 4.32969 1.71564C3.96406 1.71564 3.68281 1.99689 3.68281 2.36251V2.98126H2.24844C1.29219 2.98126 0.476562 3.76876 0.476562 4.75314V14.5406C0.476562 15.4969 1.26406 16.3125 2.24844 16.3125H15.7484C16.7047 16.3125 17.5203 15.525 17.5203 14.5406V4.72501C17.5203 3.76876 16.7047 2.98126 15.7484 2.98126ZM1.77031 8.21251H4.16094V10.9969H1.77031V8.21251ZM5.42656 8.21251H8.37969V10.9969H5.42656V8.21251ZM8.37969 12.2625V15.0188H5.42656V12.2625H8.37969ZM9.64531 12.2625H12.5984V15.0188H9.64531V12.2625ZM9.64531 10.9969V8.21251H12.5984V10.9969H9.64531ZM13.8359 8.21251H16.2266V10.9969H13.8359V8.21251ZM2.24844 4.24689H3.71094V4.83751C3.71094 5.17501 3.99219 5.48439 4.35781 5.48439C4.72344 5.48439 5.00469 5.20314 5.00469 4.83751V4.24689H13.0484V4.83751C13.0484 5.17501 13.3297 5.48439 13.6953 5.48439C14.0609 5.48439 14.3422 5.20314 14.3422 4.83751V4.24689H15.7484C16.0297 4.24689 16.2547 4.47189 16.2547 4.75314V6.94689H1.77031V4.75314C1.77031 4.47189 1.96719 4.24689 2.24844 4.24689ZM1.77031 14.5125V12.2344H4.16094V14.9906H2.24844C1.96719 15.0188 1.77031 14.7938 1.77031 14.5125ZM15.7484 15.0188H13.8359V12.2625H16.2266V14.5406C16.2547 14.7938 16.0297 15.0188 15.7484 15.0188Z" fill="#130D33"/>
</svg>
