<svg width="18" height="18" viewBox="0 0 18 18" fill="none" xmlns="http://www.w3.org/2000/svg">
<path d="M9.00312 7.79065C11.0844 7.79065 12.7719 6.1594 12.7719 4.1344C12.7719 2.1094 11.0844 0.478149 9.00312 0.478149C6.92187 0.478149 5.23438 2.1094 5.23438 4.1344C5.23438 6.1594 6.92187 7.79065 9.00312 7.79065ZM9.00312 1.7719C10.3812 1.7719 11.5063 2.84065 11.5063 4.16252C11.5063 5.4844 10.3812 6.55315 9.00312 6.55315C7.625 6.55315 6.5 5.4844 6.5 4.16252C6.5 2.84065 7.625 1.7719 9.00312 1.7719Z" fill="#130D33"/>
<path d="M10.8312 9.05627H7.175C4.16562 9.05627 1.71875 11.5313 1.71875 14.5406V16.875C1.71875 17.2125 2 17.5219 2.36562 17.5219C2.73125 17.5219 3.0125 17.2407 3.0125 16.875V14.5406C3.0125 12.2344 4.89687 10.3219 7.23125 10.3219H10.8594C13.1656 10.3219 15.0781 12.2063 15.0781 14.5406V16.875C15.0781 17.2125 15.3594 17.5219 15.725 17.5219C16.0906 17.5219 16.3719 17.2407 16.3719 16.875V14.5406C16.2875 11.5313 13.8406 9.05627 10.8312 9.05627Z" fill="#130D33"/>
</svg>
