<svg width="18" height="18" viewBox="0 0 18 18" fill="none" xmlns="http://www.w3.org/2000/svg">
<g clip-path="url(#clip0_13420_124)">
<path d="M3.45781 0.984375H1.68594C1.03906 0.984375 0.476562 1.51875 0.476562 2.19375V3.96563C0.476562 4.6125 1.01094 5.175 1.68594 5.175H3.45781C4.10469 5.175 4.66719 4.64063 4.66719 3.96563V2.16562C4.63906 1.51875 4.10469 0.984375 3.45781 0.984375ZM3.37344 3.88125H1.77031V2.25H3.37344V3.88125Z" fill="#130D33"/>
<path d="M7.225 3.71251H16.8719C17.2094 3.71251 17.5188 3.43126 17.5188 3.06564C17.5188 2.70001 17.2375 2.41876 16.8719 2.41876H7.225C6.8875 2.41876 6.57812 2.70001 6.57812 3.06564C6.57812 3.43126 6.8875 3.71251 7.225 3.71251Z" fill="#130D33"/>
<path d="M3.45781 6.75H1.68594C1.03906 6.75 0.476562 7.28437 0.476562 7.95937V9.73125C0.476562 10.3781 1.01094 10.9406 1.68594 10.9406H3.45781C4.10469 10.9406 4.66719 10.4062 4.66719 9.73125V7.95937C4.63906 7.28437 4.10469 6.75 3.45781 6.75ZM3.37344 9.64687H1.77031V8.01562H3.37344V9.64687Z" fill="#130D33"/>
<path d="M16.8719 8.21252H7.225C6.8875 8.21252 6.57812 8.49377 6.57812 8.8594C6.57812 9.22502 6.85938 9.47815 7.225 9.47815H16.8719C17.2094 9.47815 17.5188 9.1969 17.5188 8.8594C17.5188 8.5219 17.2094 8.21252 16.8719 8.21252Z" fill="#130D33"/>
<path d="M3.45781 12.8531H1.68594C1.03906 12.8531 0.476562 13.3875 0.476562 14.0625V15.8344C0.476562 16.4813 1.01094 17.0438 1.68594 17.0438H3.45781C4.10469 17.0438 4.66719 16.5094 4.66719 15.8344V14.0625C4.63906 13.3875 4.10469 12.8531 3.45781 12.8531ZM3.37344 15.75H1.77031V14.1188H3.37344V15.75Z" fill="#130D33"/>
<path d="M16.8719 14.2875H7.225C6.8875 14.2875 6.57812 14.5687 6.57812 14.9344C6.57812 15.3 6.85938 15.5812 7.225 15.5812H16.8719C17.2094 15.5812 17.5188 15.3 17.5188 14.9344C17.5188 14.5687 17.2094 14.2875 16.8719 14.2875Z" fill="#130D33"/>
</g>
<defs>
<clipPath id="clip0_13420_124">
<rect width="18" height="18" fill="white"/>
</clipPath>
</defs>
</svg>
