<svg width="18" height="18" viewBox="0 0 18 18" fill="none" xmlns="http://www.w3.org/2000/svg">
<g clip-path="url(#clip0_13420_160)">
<path d="M15.7516 0.506226H2.25156C1.29531 0.506226 0.507812 1.29373 0.507812 2.24998V15.75C0.507812 16.7062 1.29531 17.5219 2.27969 17.5219H15.7797C16.7359 17.5219 17.5516 16.7344 17.5516 15.75V2.24998C17.5234 1.29373 16.7078 0.506226 15.7516 0.506226ZM6.69531 10.5469V6.41248H11.3078V10.5187H6.69531V10.5469ZM11.3078 11.8125V16.2562H6.69531V11.8125H11.3078ZM1.77344 6.41248H5.45781V10.5187H1.77344V6.41248ZM12.5734 6.41248H16.2578V10.5187H12.5734V6.41248ZM2.25156 1.77185H15.7516C16.0328 1.77185 16.2578 1.99685 16.2578 2.2781V5.17498H1.77344V2.24998C1.77344 1.96873 1.97031 1.77185 2.25156 1.77185ZM1.77344 15.75V11.8125H5.45781V16.2562H2.25156C1.97031 16.2562 1.77344 16.0312 1.77344 15.75ZM15.7516 16.2562H12.5734V11.8125H16.2578V15.75C16.2578 16.0312 16.0328 16.2562 15.7516 16.2562Z" fill="#130D33"/>
</g>
<defs>
<clipPath id="clip0_13420_160">
<rect width="18" height="18" fill="white"/>
</clipPath>
</defs>
</svg>
