<svg width="94" height="47" viewBox="0 0 94 47" fill="none" xmlns="http://www.w3.org/2000/svg">
<path d="M83.2224 33.5804L93 46H0.999649V1.38806L13.2414 21.0209C14.7684 23.4699 18.3074 23.545 19.937 21.163L26.8637 11.0378C27.6323 9.91432 29.2743 9.87021 30.1021 10.9508L44.5075 29.7554C46.0318 31.7452 48.9896 31.8589 50.6621 29.9919L53.8373 26.4477C55.5475 24.5387 58.5867 24.7081 60.0741 26.7954L67.4374 37.1282C68.9574 39.2613 72.0834 39.3821 73.7635 37.3726L77.0109 33.4889C78.6406 31.5398 81.6508 31.5841 83.2224 33.5804Z" fill="url(#paint0_linear_13402_1169)"/>
<path d="M93 46L83.2224 33.5803C81.6508 31.5841 78.6406 31.5397 77.0109 33.4888L73.7635 37.3726C72.0834 39.382 68.9574 39.2612 67.4374 37.1281L60.0741 26.7953C58.5867 24.7081 55.5475 24.5386 53.8373 26.4476L50.6621 29.9919C48.9896 31.8588 46.0318 31.7452 44.5075 29.7554L31.7813 13.1428C30.1257 10.9817 26.8417 11.0699 25.3046 13.3168L20.0123 21.0528C18.3636 23.4629 14.7718 23.3514 13.2758 20.8436L1.43775 1" stroke="#EA7465" stroke-width="2" stroke-linecap="round"/>
<defs>
<linearGradient id="paint0_linear_13402_1169" x1="66.5814" y1="-34.626" x2="66.5814" y2="46" gradientUnits="userSpaceOnUse">
<stop stop-color="#EA7465"/>
<stop offset="1" stop-color="#EA7465" stop-opacity="0"/>
</linearGradient>
</defs>
</svg>
