<svg width="94" height="45" viewBox="0 0 94 45" fill="none" xmlns="http://www.w3.org/2000/svg">
<path d="M10.6494 15.7899L1 30V45H93.0004V22.5L89.8485 16.0764C88.508 13.3443 84.7287 13.0505 82.982 15.5424L78.5709 21.8354C76.8049 24.3549 72.9742 24.0204 71.6716 21.2329L70.5776 18.8918C69.2622 16.0769 65.3798 15.771 63.6398 18.3452L60.0792 23.613C58.2641 26.2984 54.1762 25.8231 53.0257 22.7929L47.5638 8.40744C46.3339 5.16816 41.8475 4.91829 40.2655 8.00095L30.1141 27.7817C28.5996 30.7326 24.3582 30.6643 22.9396 27.6661L17.5742 16.3263C16.2506 13.5288 12.3879 13.2296 10.6494 15.7899Z" fill="url(#paint0_linear_13402_1158)"/>
<path d="M1 30L10.6494 15.7899C12.3879 13.2296 16.2506 13.5288 17.5742 16.3263L22.9396 27.6661C24.3582 30.6643 28.5996 30.7326 30.1141 27.7817L40.2655 8.00094C41.8475 4.91829 46.3339 5.16816 47.5638 8.40744L53.0257 22.7929C54.1762 25.8231 58.2641 26.2984 60.0792 23.613L63.6398 18.3452C65.3798 15.771 69.2622 16.0769 70.5776 18.8918L71.6716 21.2329C72.9742 24.0204 76.8049 24.3549 78.5709 21.8354L82.982 15.5424C84.7287 13.0505 88.508 13.3444 89.8485 16.0764L93.0004 22.5" stroke="#3183FF" stroke-width="2" stroke-linecap="round"/>
<defs>
<linearGradient id="paint0_linear_13402_1158" x1="47.0002" y1="-52.5" x2="47.0002" y2="45" gradientUnits="userSpaceOnUse">
<stop stop-color="#3183FF"/>
<stop offset="0.9999" stop-color="#3183FF" stop-opacity="0"/>
<stop offset="1" stop-color="#24A959" stop-opacity="0"/>
</linearGradient>
</defs>
</svg>
