<svg width="320" height="314" viewBox="0 0 320 314" fill="none" xmlns="http://www.w3.org/2000/svg">
<rect y="48" width="18" height="100" rx="9" fill="url(#paint0_linear_13403_247)"/>
<rect x="50" y="75" width="19" height="73" rx="9.5" fill="url(#paint1_linear_13403_247)"/>
<rect x="101" y="21" width="18" height="127" rx="9" fill="url(#paint2_linear_13403_247)"/>
<rect x="151" y="63" width="18" height="85" rx="9" fill="url(#paint3_linear_13403_247)"/>
<rect x="201" y="102" width="18" height="46" rx="9" fill="url(#paint4_linear_13403_247)"/>
<rect x="251" y="75" width="19" height="73" rx="9.5" fill="url(#paint5_linear_13403_247)"/>
<rect x="302" y="37" width="18" height="111" rx="9" fill="url(#paint6_linear_13403_247)"/>
<rect width="18" height="89" rx="9" transform="matrix(1 0 0 -1 0 243)" fill="url(#paint7_linear_13403_247)"/>
<rect width="19" height="107" rx="9.5" transform="matrix(1 0 0 -1 50 261)" fill="url(#paint8_linear_13403_247)"/>
<rect width="18" height="47" rx="9" transform="matrix(1 0 0 -1 101 201)" fill="url(#paint9_linear_13403_247)"/>
<rect width="18" height="117" rx="9" transform="matrix(1 0 0 -1 151 271)" fill="url(#paint10_linear_13403_247)"/>
<rect width="18" height="70" rx="9" transform="matrix(1 0 0 -1 201 224)" fill="url(#paint11_linear_13403_247)"/>
<rect width="19" height="64" rx="9.5" transform="matrix(1 0 0 -1 251 218)" fill="url(#paint12_linear_13403_247)"/>
<rect width="18" height="89" rx="9" transform="matrix(1 0 0 -1 302 243)" fill="url(#paint13_linear_13403_247)"/>
<g opacity="0.7">
<path d="M9.74609 309.639C8.99704 309.639 8.35902 309.435 7.83203 309.028C7.30504 308.617 6.90234 308.022 6.62393 307.243C6.34553 306.461 6.20632 305.516 6.20632 304.409C6.20632 303.309 6.34553 302.369 6.62393 301.59C6.90566 300.808 7.31001 300.211 7.837 299.8C8.36731 299.386 9.00367 299.179 9.74609 299.179C10.4885 299.179 11.1232 299.386 11.6502 299.8C12.1805 300.211 12.5849 300.808 12.8633 301.59C13.145 302.369 13.2859 303.309 13.2859 304.409C13.2859 305.516 13.1467 306.461 12.8683 307.243C12.5898 308.022 12.1871 308.617 11.6602 309.028C11.1332 309.435 10.4951 309.639 9.74609 309.639ZM9.74609 308.545C10.4885 308.545 11.0652 308.187 11.4762 307.472C11.8872 306.756 12.0927 305.735 12.0927 304.409C12.0927 303.527 11.9982 302.777 11.8093 302.157C11.6237 301.537 11.3552 301.065 11.0039 300.74C10.6559 300.415 10.2366 300.253 9.74609 300.253C9.0103 300.253 8.43525 300.616 8.02095 301.342C7.60665 302.064 7.3995 303.087 7.3995 304.409C7.3995 305.291 7.49231 306.04 7.67791 306.656C7.86352 307.273 8.13033 307.742 8.47834 308.063C8.82966 308.385 9.25225 308.545 9.74609 308.545ZM18.7546 299.318V309.5H17.5217V300.611H17.462L14.9762 302.261V301.009L17.5217 299.318H18.7546Z" fill="#646464"/>
<path d="M57.7617 309.639C57.0127 309.639 56.3746 309.435 55.8477 309.028C55.3207 308.617 54.918 308.022 54.6396 307.243C54.3612 306.461 54.2219 305.516 54.2219 304.409C54.2219 303.309 54.3612 302.369 54.6396 301.59C54.9213 300.808 55.3256 300.211 55.8526 299.8C56.3829 299.386 57.0193 299.179 57.7617 299.179C58.5041 299.179 59.1388 299.386 59.6658 299.8C60.1961 300.211 60.6005 300.808 60.8789 301.59C61.1606 302.369 61.3015 303.309 61.3015 304.409C61.3015 305.516 61.1623 306.461 60.8839 307.243C60.6055 308.022 60.2028 308.617 59.6758 309.028C59.1488 309.435 58.5108 309.639 57.7617 309.639ZM57.7617 308.545C58.5041 308.545 59.0808 308.187 59.4918 307.472C59.9028 306.756 60.1083 305.735 60.1083 304.409C60.1083 303.527 60.0138 302.777 59.8249 302.157C59.6393 301.537 59.3709 301.065 59.0195 300.74C58.6715 300.415 58.2522 300.253 57.7617 300.253C57.0259 300.253 56.4509 300.616 56.0366 301.342C55.6223 302.064 55.4151 303.087 55.4151 304.409C55.4151 305.291 55.5079 306.04 55.6935 306.656C55.8791 307.273 56.146 307.742 56.494 308.063C56.8453 308.385 57.2679 308.545 57.7617 308.545ZM63.1907 309.5V308.605L66.5515 304.926C66.9459 304.495 67.2707 304.121 67.5259 303.803C67.7811 303.481 67.9701 303.179 68.0927 302.898C68.2186 302.613 68.2816 302.314 68.2816 302.003C68.2816 301.645 68.1954 301.335 68.0231 301.073C67.854 300.811 67.622 300.609 67.3271 300.467C67.0321 300.324 66.7006 300.253 66.3327 300.253C65.9416 300.253 65.6003 300.334 65.3086 300.496C65.0202 300.656 64.7965 300.879 64.6374 301.168C64.4817 301.456 64.4038 301.794 64.4038 302.182H63.2305C63.2305 301.585 63.368 301.062 63.6431 300.611C63.9182 300.16 64.2927 299.809 64.7667 299.557C65.244 299.305 65.7792 299.179 66.3725 299.179C66.9691 299.179 67.4978 299.305 67.9585 299.557C68.4192 299.809 68.7804 300.148 69.0423 300.576C69.3041 301.004 69.435 301.479 69.435 302.003C69.435 302.377 69.3671 302.744 69.2312 303.102C69.0986 303.456 68.8666 303.852 68.5352 304.29C68.207 304.724 67.7513 305.254 67.168 305.881L64.881 308.327V308.406H69.614V309.5H63.1907Z" fill="#646464"/>
<path d="M106.543 309.639C105.794 309.639 105.156 309.435 104.629 309.028C104.102 308.617 103.699 308.022 103.421 307.243C103.142 306.461 103.003 305.516 103.003 304.409C103.003 303.309 103.142 302.369 103.421 301.59C103.703 300.808 104.107 300.211 104.634 299.8C105.164 299.386 105.801 299.179 106.543 299.179C107.285 299.179 107.92 299.386 108.447 299.8C108.977 300.211 109.382 300.808 109.66 301.59C109.942 302.369 110.083 303.309 110.083 304.409C110.083 305.516 109.944 306.461 109.665 307.243C109.387 308.022 108.984 308.617 108.457 309.028C107.93 309.435 107.292 309.639 106.543 309.639ZM106.543 308.545C107.285 308.545 107.862 308.187 108.273 307.472C108.684 306.756 108.89 305.735 108.89 304.409C108.89 303.527 108.795 302.777 108.606 302.157C108.421 301.537 108.152 301.065 107.801 300.74C107.453 300.415 107.033 300.253 106.543 300.253C105.807 300.253 105.232 300.616 104.818 301.342C104.404 302.064 104.196 303.087 104.196 304.409C104.196 305.291 104.289 306.04 104.475 306.656C104.66 307.273 104.927 307.742 105.275 308.063C105.627 308.385 106.049 308.545 106.543 308.545ZM115.412 309.639C114.756 309.639 114.171 309.527 113.657 309.301C113.147 309.076 112.741 308.763 112.439 308.362C112.141 307.957 111.979 307.488 111.952 306.955H113.205C113.231 307.283 113.344 307.566 113.543 307.805C113.742 308.04 114.002 308.222 114.324 308.352C114.645 308.481 115.001 308.545 115.392 308.545C115.83 308.545 116.218 308.469 116.556 308.317C116.894 308.164 117.159 307.952 117.351 307.68C117.543 307.409 117.64 307.094 117.64 306.736C117.64 306.361 117.547 306.031 117.361 305.746C117.176 305.458 116.904 305.233 116.546 305.07C116.188 304.908 115.75 304.827 115.233 304.827H114.418V303.733H115.233C115.638 303.733 115.992 303.66 116.297 303.514C116.605 303.368 116.846 303.163 117.018 302.898C117.194 302.633 117.282 302.321 117.282 301.963C117.282 301.618 117.205 301.318 117.053 301.063C116.9 300.808 116.685 300.609 116.407 300.467C116.132 300.324 115.807 300.253 115.432 300.253C115.081 300.253 114.749 300.317 114.438 300.447C114.13 300.573 113.878 300.757 113.682 300.999C113.487 301.237 113.381 301.526 113.364 301.864H112.171C112.191 301.33 112.351 300.863 112.653 300.462C112.955 300.057 113.349 299.742 113.836 299.517C114.327 299.292 114.865 299.179 115.452 299.179C116.082 299.179 116.622 299.307 117.073 299.562C117.524 299.814 117.87 300.147 118.112 300.561C118.354 300.975 118.475 301.423 118.475 301.903C118.475 302.477 118.324 302.966 118.022 303.37C117.724 303.774 117.318 304.054 116.804 304.21V304.29C117.447 304.396 117.949 304.669 118.311 305.11C118.672 305.548 118.853 306.089 118.853 306.736C118.853 307.289 118.702 307.786 118.4 308.227C118.102 308.665 117.694 309.009 117.177 309.261C116.66 309.513 116.072 309.639 115.412 309.639Z" fill="#646464"/>
<path d="M155.509 309.639C154.76 309.639 154.122 309.435 153.595 309.028C153.068 308.617 152.665 308.022 152.387 307.243C152.108 306.461 151.969 305.516 151.969 304.409C151.969 303.309 152.108 302.369 152.387 301.59C152.668 300.808 153.073 300.211 153.6 299.8C154.13 299.386 154.766 299.179 155.509 299.179C156.251 299.179 156.886 299.386 157.413 299.8C157.943 300.211 158.348 300.808 158.626 301.59C158.908 302.369 159.049 303.309 159.049 304.409C159.049 305.516 158.909 306.461 158.631 307.243C158.353 308.022 157.95 308.617 157.423 309.028C156.896 309.435 156.258 309.639 155.509 309.639ZM155.509 308.545C156.251 308.545 156.828 308.187 157.239 307.472C157.65 306.756 157.855 305.735 157.855 304.409C157.855 303.527 157.761 302.777 157.572 302.157C157.386 301.537 157.118 301.065 156.767 300.74C156.419 300.415 155.999 300.253 155.509 300.253C154.773 300.253 154.198 300.616 153.784 301.342C153.369 302.064 153.162 303.087 153.162 304.409C153.162 305.291 153.255 306.04 153.441 306.656C153.626 307.273 153.893 307.742 154.241 308.063C154.592 308.385 155.015 308.545 155.509 308.545ZM160.699 307.412V306.398L165.174 299.318H165.909V300.889H165.412L162.032 306.239V306.318H168.057V307.412H160.699ZM165.492 309.5V307.104V306.631V299.318H166.665V309.5H165.492Z" fill="#646464"/>
<path d="M204.741 309.639C203.992 309.639 203.354 309.435 202.827 309.028C202.3 308.617 201.897 308.022 201.619 307.243C201.341 306.461 201.201 305.516 201.201 304.409C201.201 303.309 201.341 302.369 201.619 301.59C201.901 300.808 202.305 300.211 202.832 299.8C203.362 299.386 203.999 299.179 204.741 299.179C205.484 299.179 206.118 299.386 206.645 299.8C207.176 300.211 207.58 300.808 207.858 301.59C208.14 302.369 208.281 303.309 208.281 304.409C208.281 305.516 208.142 306.461 207.863 307.243C207.585 308.022 207.182 308.617 206.655 309.028C206.128 309.435 205.49 309.639 204.741 309.639ZM204.741 308.545C205.484 308.545 206.06 308.187 206.471 307.472C206.882 306.756 207.088 305.735 207.088 304.409C207.088 303.527 206.993 302.777 206.804 302.157C206.619 301.537 206.35 301.065 205.999 300.74C205.651 300.415 205.232 300.253 204.741 300.253C204.005 300.253 203.43 300.616 203.016 301.342C202.602 302.064 202.395 303.087 202.395 304.409C202.395 305.291 202.487 306.04 202.673 306.656C202.859 307.273 203.125 307.742 203.473 308.063C203.825 308.385 204.247 308.545 204.741 308.545ZM213.352 309.639C212.769 309.639 212.243 309.523 211.776 309.291C211.309 309.059 210.934 308.741 210.652 308.337C210.371 307.932 210.217 307.472 210.19 306.955H211.383C211.43 307.415 211.638 307.796 212.01 308.098C212.384 308.396 212.832 308.545 213.352 308.545C213.77 308.545 214.141 308.448 214.466 308.252C214.794 308.057 215.051 307.788 215.236 307.447C215.425 307.102 215.52 306.713 215.52 306.278C215.52 305.834 215.422 305.438 215.226 305.09C215.034 304.739 214.769 304.462 214.431 304.26C214.093 304.058 213.707 303.955 213.272 303.952C212.961 303.948 212.641 303.996 212.313 304.096C211.985 304.192 211.715 304.316 211.503 304.469L210.349 304.33L210.966 299.318H216.255V300.412H212L211.642 303.415H211.701C211.91 303.249 212.172 303.112 212.487 303.002C212.802 302.893 213.13 302.838 213.471 302.838C214.094 302.838 214.65 302.987 215.137 303.286C215.627 303.58 216.012 303.985 216.29 304.499C216.572 305.012 216.713 305.599 216.713 306.259C216.713 306.908 216.567 307.488 216.275 307.999C215.987 308.506 215.589 308.907 215.082 309.202C214.575 309.493 213.998 309.639 213.352 309.639Z" fill="#646464"/>
<path d="M253.632 309.639C252.883 309.639 252.245 309.435 251.718 309.028C251.191 308.617 250.788 308.022 250.51 307.243C250.231 306.461 250.092 305.516 250.092 304.409C250.092 303.309 250.231 302.369 250.51 301.59C250.791 300.808 251.196 300.211 251.723 299.8C252.253 299.386 252.889 299.179 253.632 299.179C254.374 299.179 255.009 299.386 255.536 299.8C256.066 300.211 256.471 300.808 256.749 301.59C257.031 302.369 257.172 303.309 257.172 304.409C257.172 305.516 257.032 306.461 256.754 307.243C256.476 308.022 256.073 308.617 255.546 309.028C255.019 309.435 254.381 309.639 253.632 309.639ZM253.632 308.545C254.374 308.545 254.951 308.187 255.362 307.472C255.773 306.756 255.978 305.735 255.978 304.409C255.978 303.527 255.884 302.777 255.695 302.157C255.509 301.537 255.241 301.065 254.89 300.74C254.542 300.415 254.122 300.253 253.632 300.253C252.896 300.253 252.321 300.616 251.907 301.342C251.492 302.064 251.285 303.087 251.285 304.409C251.285 305.291 251.378 306.04 251.564 306.656C251.749 307.273 252.016 307.742 252.364 308.063C252.715 308.385 253.138 308.545 253.632 308.545ZM262.441 309.639C262.024 309.633 261.606 309.553 261.189 309.401C260.771 309.248 260.39 308.991 260.045 308.63C259.7 308.265 259.424 307.773 259.215 307.153C259.006 306.53 258.902 305.748 258.902 304.807C258.902 303.905 258.986 303.107 259.155 302.411C259.324 301.711 259.57 301.123 259.891 300.646C260.213 300.165 260.6 299.8 261.054 299.552C261.512 299.303 262.027 299.179 262.601 299.179C263.171 299.179 263.678 299.293 264.122 299.522C264.569 299.747 264.934 300.062 265.216 300.467C265.497 300.871 265.68 301.337 265.763 301.864H264.549C264.437 301.406 264.218 301.027 263.893 300.725C263.568 300.424 263.138 300.273 262.601 300.273C261.812 300.273 261.19 300.616 260.736 301.302C260.285 301.988 260.058 302.951 260.055 304.19H260.135C260.32 303.909 260.541 303.668 260.796 303.469C261.054 303.267 261.339 303.112 261.651 303.002C261.963 302.893 262.292 302.838 262.64 302.838C263.224 302.838 263.757 302.984 264.241 303.276C264.725 303.564 265.113 303.963 265.405 304.474C265.696 304.981 265.842 305.562 265.842 306.219C265.842 306.848 265.701 307.425 265.419 307.949C265.138 308.469 264.742 308.884 264.231 309.192C263.724 309.497 263.128 309.646 262.441 309.639ZM262.441 308.545C262.859 308.545 263.234 308.441 263.565 308.232C263.9 308.023 264.163 307.743 264.356 307.392C264.551 307.041 264.649 306.65 264.649 306.219C264.649 305.798 264.554 305.415 264.366 305.07C264.18 304.722 263.923 304.446 263.595 304.24C263.27 304.035 262.899 303.932 262.481 303.932C262.166 303.932 261.873 303.995 261.601 304.121C261.33 304.243 261.091 304.412 260.885 304.628C260.683 304.843 260.524 305.09 260.408 305.369C260.292 305.644 260.234 305.934 260.234 306.239C260.234 306.643 260.329 307.021 260.517 307.372C260.71 307.723 260.972 308.007 261.303 308.222C261.638 308.438 262.017 308.545 262.441 308.545Z" fill="#646464"/>
<path d="M303.138 309.639C302.389 309.639 301.751 309.435 301.224 309.028C300.697 308.617 300.294 308.022 300.016 307.243C299.737 306.461 299.598 305.516 299.598 304.409C299.598 303.309 299.737 302.369 300.016 301.59C300.297 300.808 300.702 300.211 301.229 299.8C301.759 299.386 302.395 299.179 303.138 299.179C303.88 299.179 304.515 299.386 305.042 299.8C305.572 300.211 305.976 300.808 306.255 301.59C306.537 302.369 306.677 303.309 306.677 304.409C306.677 305.516 306.538 306.461 306.26 307.243C305.981 308.022 305.579 308.617 305.052 309.028C304.525 309.435 303.887 309.639 303.138 309.639ZM303.138 308.545C303.88 308.545 304.457 308.187 304.868 307.472C305.279 306.756 305.484 305.735 305.484 304.409C305.484 303.527 305.39 302.777 305.201 302.157C305.015 301.537 304.747 301.065 304.396 300.74C304.047 300.415 303.628 300.253 303.138 300.253C302.402 300.253 301.827 300.616 301.413 301.342C300.998 302.064 300.791 303.087 300.791 304.409C300.791 305.291 300.884 306.04 301.07 306.656C301.255 307.273 301.522 307.742 301.87 308.063C302.221 308.385 302.644 308.545 303.138 308.545ZM308.611 309.5L313.165 300.491V300.412H307.915V299.318H314.438V300.472L309.904 309.5H308.611Z" fill="#646464"/>
</g>
<defs>
<linearGradient id="paint0_linear_13403_247" x1="9" y1="148" x2="9" y2="48" gradientUnits="userSpaceOnUse">
<stop stop-color="#3183FF"/>
<stop offset="1" stop-color="#ADCEFF"/>
</linearGradient>
<linearGradient id="paint1_linear_13403_247" x1="59.5" y1="148" x2="59.5" y2="75" gradientUnits="userSpaceOnUse">
<stop stop-color="#3183FF"/>
<stop offset="1" stop-color="#ADCEFF"/>
</linearGradient>
<linearGradient id="paint2_linear_13403_247" x1="110" y1="148" x2="110" y2="21" gradientUnits="userSpaceOnUse">
<stop stop-color="#3183FF"/>
<stop offset="1" stop-color="#ADCEFF"/>
</linearGradient>
<linearGradient id="paint3_linear_13403_247" x1="160" y1="148" x2="160" y2="63" gradientUnits="userSpaceOnUse">
<stop stop-color="#3183FF"/>
<stop offset="1" stop-color="#ADCEFF"/>
</linearGradient>
<linearGradient id="paint4_linear_13403_247" x1="210" y1="148" x2="210" y2="102" gradientUnits="userSpaceOnUse">
<stop stop-color="#3183FF"/>
<stop offset="1" stop-color="#ADCEFF"/>
</linearGradient>
<linearGradient id="paint5_linear_13403_247" x1="260.5" y1="148" x2="260.5" y2="75" gradientUnits="userSpaceOnUse">
<stop stop-color="#3183FF"/>
<stop offset="1" stop-color="#ADCEFF"/>
</linearGradient>
<linearGradient id="paint6_linear_13403_247" x1="311" y1="148" x2="311" y2="37" gradientUnits="userSpaceOnUse">
<stop stop-color="#3183FF"/>
<stop offset="1" stop-color="#ADCEFF"/>
</linearGradient>
<linearGradient id="paint7_linear_13403_247" x1="9" y1="89" x2="9" y2="0" gradientUnits="userSpaceOnUse">
<stop stop-color="#3183FF"/>
<stop offset="1" stop-color="#ADCEFF"/>
</linearGradient>
<linearGradient id="paint8_linear_13403_247" x1="9.5" y1="107" x2="9.5" y2="0" gradientUnits="userSpaceOnUse">
<stop stop-color="#3183FF"/>
<stop offset="1" stop-color="#ADCEFF"/>
</linearGradient>
<linearGradient id="paint9_linear_13403_247" x1="9" y1="47" x2="9" y2="0" gradientUnits="userSpaceOnUse">
<stop stop-color="#3183FF"/>
<stop offset="1" stop-color="#ADCEFF"/>
</linearGradient>
<linearGradient id="paint10_linear_13403_247" x1="9" y1="117" x2="9" y2="0" gradientUnits="userSpaceOnUse">
<stop stop-color="#3183FF"/>
<stop offset="1" stop-color="#ADCEFF"/>
</linearGradient>
<linearGradient id="paint11_linear_13403_247" x1="9" y1="70" x2="9" y2="0" gradientUnits="userSpaceOnUse">
<stop stop-color="#3183FF"/>
<stop offset="1" stop-color="#ADCEFF"/>
</linearGradient>
<linearGradient id="paint12_linear_13403_247" x1="9.5" y1="64" x2="9.5" y2="0" gradientUnits="userSpaceOnUse">
<stop stop-color="#3183FF"/>
<stop offset="1" stop-color="#ADCEFF"/>
</linearGradient>
<linearGradient id="paint13_linear_13403_247" x1="9" y1="89" x2="9" y2="0" gradientUnits="userSpaceOnUse">
<stop stop-color="#3183FF"/>
<stop offset="1" stop-color="#ADCEFF"/>
</linearGradient>
</defs>
</svg>
