<svg width="39" height="39" viewBox="0 0 39 39" fill="none" xmlns="http://www.w3.org/2000/svg">
<rect opacity="0.9" width="39" height="39" rx="8" fill="#3183FF"/>
<path d="M24.1605 20.8928C23.7622 20.8988 23.3673 20.9678 22.9905 21.0971L21.6534 19.5L22.9905 17.9028C23.3673 18.0322 23.7622 18.1011 24.1605 18.1071C25.0124 18.1113 25.8399 17.8224 26.5042 17.289C27.1684 16.7556 27.6292 16.0101 27.8091 15.1773C27.989 14.3446 27.8772 13.4754 27.4924 12.7153C27.1076 11.9552 26.4733 11.3505 25.6956 11.0025C24.918 10.6546 24.0444 10.5845 23.2212 10.8041C22.3981 11.0237 21.6754 11.5196 21.1744 12.2086C20.6734 12.8977 20.4245 13.738 20.4695 14.5888C20.5144 15.4395 20.8504 16.249 21.4212 16.8814L20.0098 18.5714H18.4591C18.2331 17.6961 17.6956 16.9332 16.9473 16.4258C16.1991 15.9185 15.2915 15.7014 14.3947 15.8153C13.4979 15.9292 12.6734 16.3663 12.0758 17.0446C11.4781 17.7229 11.1484 18.5959 11.1484 19.5C11.1484 20.404 11.4781 21.277 12.0758 21.9553C12.6734 22.6337 13.4979 23.0707 14.3947 23.1847C15.2915 23.2986 16.1991 23.0815 16.9473 22.5741C17.6956 22.0667 18.2331 21.3039 18.4591 20.4285H20.0098L21.4212 22.1185C20.8504 22.751 20.5144 23.5604 20.4695 24.4112C20.4245 25.2619 20.6734 26.1023 21.1744 26.7913C21.6754 27.4804 22.3981 27.9763 23.2212 28.1959C24.0444 28.4154 24.918 28.3454 25.6956 27.9974C26.4733 27.6495 27.1076 27.0448 27.4924 26.2847C27.8772 25.5246 27.989 24.6553 27.8091 23.8226C27.6292 22.9899 27.1684 22.2443 26.5042 21.7109C25.8399 21.1775 25.0124 20.8887 24.1605 20.8928ZM14.8748 21.3571C14.5075 21.3571 14.1484 21.2482 13.843 21.0441C13.5376 20.8401 13.2996 20.55 13.159 20.2107C13.0184 19.8713 12.9817 19.4979 13.0533 19.1377C13.125 18.7774 13.3019 18.4465 13.5616 18.1868C13.8213 17.9271 14.1522 17.7502 14.5125 17.6785C14.8727 17.6069 15.2461 17.6436 15.5855 17.7842C15.9248 17.9248 16.2149 18.1628 16.4189 18.4682C16.623 18.7736 16.7319 19.1327 16.7319 19.5C16.7319 19.9925 16.5363 20.4649 16.188 20.8132C15.8397 21.1615 15.3673 21.3571 14.8748 21.3571ZM24.1605 12.5357C24.5278 12.5357 24.8869 12.6446 25.1923 12.8487C25.4977 13.0527 25.7357 13.3428 25.8763 13.6821C26.0168 14.0215 26.0536 14.3949 25.982 14.7551C25.9103 15.1154 25.7334 15.4463 25.4737 15.706C25.214 15.9658 24.8831 16.1426 24.5228 16.2143C24.1626 16.286 23.7891 16.2492 23.4498 16.1086C23.1104 15.968 22.8204 15.73 22.6163 15.4246C22.4123 15.1192 22.3034 14.7601 22.3034 14.3928C22.3034 13.9003 22.499 13.4279 22.8473 13.0796C23.1956 12.7314 23.6679 12.5357 24.1605 12.5357ZM24.1605 26.4643C23.7932 26.4643 23.4341 26.3553 23.1287 26.1513C22.8233 25.9472 22.5853 25.6572 22.4447 25.3178C22.3042 24.9785 22.2674 24.6051 22.339 24.2448C22.4107 23.8846 22.5876 23.5536 22.8473 23.2939C23.107 23.0342 23.4379 22.8573 23.7982 22.7857C24.1584 22.714 24.5318 22.7508 24.8712 22.8913C25.2105 23.0319 25.5006 23.2699 25.7047 23.5753C25.9087 23.8808 26.0176 24.2398 26.0176 24.6071C26.0176 25.0997 25.822 25.572 25.4737 25.9203C25.1254 26.2686 24.653 26.4643 24.1605 26.4643Z" fill="white"/>
</svg>
