<svg width="40" height="40" viewBox="0 0 40 40" fill="none" xmlns="http://www.w3.org/2000/svg">
<rect opacity="0.9" width="40" height="40" rx="8" fill="#EA7465"/>
<path d="M25.7135 24.7619H19.0468C18.8099 24.7631 18.581 24.676 18.4049 24.5175C18.2288 24.359 18.1181 24.1405 18.0944 23.9048L18.3992 20.7619L21.2087 20C21.4613 19.9318 21.6765 19.7661 21.8068 19.5393C21.9372 19.3124 21.9722 19.0431 21.904 18.7905C21.8358 18.5379 21.67 18.3228 21.4432 18.1924C21.2164 18.062 20.947 18.0271 20.6944 18.0953L18.6087 18.6857L19.0468 14.381C19.0721 14.1284 18.996 13.8761 18.8352 13.6797C18.6745 13.4832 18.4423 13.3586 18.1897 13.3334C17.9371 13.3081 17.6848 13.3842 17.4883 13.545C17.2919 13.7057 17.1673 13.9379 17.1421 14.1905L16.6373 19.2857L14.0278 20C13.7752 20.0341 13.5465 20.1672 13.392 20.3699C13.2375 20.5726 13.1699 20.8284 13.204 21.081C13.2381 21.3336 13.3711 21.5623 13.5738 21.7168C13.7765 21.8713 14.0323 21.9389 14.2849 21.9048C14.3701 21.9187 14.4569 21.9187 14.5421 21.9048L16.4468 21.3619L16.1897 23.8096C16.1897 24.5673 16.4907 25.294 17.0265 25.8299C17.5623 26.3657 18.2891 26.6667 19.0468 26.6667H25.7135C25.9661 26.6667 26.2083 26.5664 26.3869 26.3878C26.5655 26.2091 26.6659 25.9669 26.6659 25.7143C26.6659 25.4617 26.5655 25.2195 26.3869 25.0409C26.2083 24.8623 25.9661 24.7619 25.7135 24.7619Z" fill="white"/>
</svg>
